<svg width="22" height="20" viewBox="0 0 22 20" fill="none" xmlns="http://www.w3.org/2000/svg">
<path d="M18 8V4.2C18 3.0799 18 2.51984 17.782 2.09202C17.5903 1.71569 17.2843 1.40973 16.908 1.21799C16.4802 1 15.9201 1 14.8 1H7.2C6.07989 1 5.51984 1 5.09202 1.21799C4.71569 1.40973 4.40973 1.71569 4.21799 2.09202C4 2.51984 4 3.0799 4 4.2V8M4 7H1V6M18 7H21V6M5 11.5H5.01M17 11.5H17.01M5.8 8H16.2C17.8802 8 18.7202 8 19.362 8.32698C19.9265 8.6146 20.3854 9.07354 20.673 9.63803C21 10.2798 21 11.1198 21 12.8V16C21 16.9319 21 17.3978 20.8478 17.7654C20.6448 18.2554 20.2554 18.6448 19.7654 18.8478C19.3978 19 18.9319 19 18 19H17.4C17.0284 19 16.8426 19 16.6871 18.9754C15.8313 18.8398 15.1602 18.1687 15.0246 17.3129C15 17.1574 15 16.9716 15 16.6C15 16.5071 15 16.4606 14.9938 16.4218C14.96 16.2078 14.7922 16.04 14.5782 16.0062C14.5394 16 14.4929 16 14.4 16H7.6C7.5071 16 7.46065 16 7.42178 16.0062C7.20784 16.04 7.04004 16.2078 7.00616 16.4218C7 16.4606 7 16.5071 7 16.6C7 16.9716 7 17.1574 6.97538 17.3129C6.83983 18.1687 6.16865 18.8398 5.31287 18.9754C5.1574 19 4.9716 19 4.6 19H4C3.06812 19 2.60218 19 2.23463 18.8478C1.74458 18.6448 1.35523 18.2554 1.15224 17.7654C1 17.3978 1 16.9319 1 16V12.8C1 11.1198 1 10.2798 1.32698 9.63803C1.6146 9.07354 2.07354 8.6146 2.63803 8.32698C3.27976 8 4.11984 8 5.8 8ZM5.5 11.5C5.5 11.7761 5.27614 12 5 12C4.72386 12 4.5 11.7761 4.5 11.5C4.5 11.2239 4.72386 11 5 11C5.27614 11 5.5 11.2239 5.5 11.5ZM17.5 11.5C17.5 11.7761 17.2761 12 17 12C16.7239 12 16.5 11.7761 16.5 11.5C16.5 11.2239 16.7239 11 17 11C17.2761 11 17.5 11.2239 17.5 11.5Z" stroke="#414651" stroke-width="2" stroke-linecap="round" stroke-linejoin="round"/>
</svg>
