<?xml version="1.0" encoding="UTF-8"?><svg id="a" xmlns="http://www.w3.org/2000/svg" width="1920" height="1000" xmlns:xlink="http://www.w3.org/1999/xlink" viewBox="0 0 1920 1000"><defs><linearGradient id="b" x1="0" y1="301.252" x2="602.999" y2="301.252" gradientUnits="userSpaceOnUse"><stop offset="0" stop-color="#0187fa"/><stop offset="1" stop-color="#036de7"/></linearGradient></defs><polygon points="0 0 602.999 0 0 602.505 0 0" fill="url(#b)"/><polyline points="0 602.505 602.999 0 614.969 .184 0 614.649 0 .184" fill="#2b96f8"/><polygon points="383.96 1000 1383.294 0 614.969 .184 0 614.649 0 1000 383.96 1000" fill="#027ff5"/><polygon points="1043.345 1000 1920 122.981 1920 0 1383.294 0 383.96 1000 1043.345 1000" fill="#0074eb"/><polygon points="1678.68 1000 1920 758.861 1920 122.981 1043.345 1000 1678.68 1000" fill="#0255cb"/><polygon points="1920 758.861 1920 1000 1678.68 1000 1920 758.861" fill="#0563de"/></svg>