<?xml version="1.0" encoding="UTF-8"?>
<svg id="Laag_1" data-name="Laag 1" xmlns="http://www.w3.org/2000/svg" xmlns:xlink="http://www.w3.org/1999/xlink" viewBox="0 0 537.62 215.38">
  <defs>
    <style>
      .cls-1 {
        fill: url(#linear-gradient-2);
      }

      .cls-2 {
        fill: url(#linear-gradient);
      }

      .cls-3 {
        fill: #fff;
      }
    </style>
    <linearGradient id="linear-gradient" x1="309.9" y1="177.35" x2="469.15" y2="177.35" gradientUnits="userSpaceOnUse">
      <stop offset="0" stop-color="#3e7cbf"/>
      <stop offset="1" stop-color="#27afaf"/>
    </linearGradient>
    <linearGradient id="linear-gradient-2" x1="65.01" y1="108.77" x2="472.61" y2="108.77" xlink:href="#linear-gradient"/>
  </defs>
  <g>
    <rect class="cls-2" x="309.9" y="162.37" width="159.25" height="29.97" rx="4.87" ry="4.87"/>
    <g>
      <path class="cls-3" d="M341.98,175.94c0,3.07-2.3,4.98-5.98,4.98h-2.77v3.8h-3.19v-13.77h5.96c3.68,0,5.98,1.91,5.98,5ZM338.75,175.94c0-1.51-.98-2.4-2.93-2.4h-2.6v4.78h2.6c1.95,0,2.93-.89,2.93-2.38Z"/>
      <path class="cls-3" d="M356.57,181.76h-6.39l-1.22,2.95h-3.26l6.14-13.77h3.15l6.16,13.77h-3.34l-1.22-2.95ZM355.57,179.34l-2.18-5.27-2.18,5.27h4.37Z"/>
      <path class="cls-3" d="M375.29,184.71l-2.66-3.84h-2.93v3.84h-3.19v-13.77h5.96c3.68,0,5.98,1.91,5.98,5,0,2.06-1.04,3.58-2.83,4.35l3.09,4.43h-3.42ZM372.3,173.54h-2.6v4.8h2.6c1.95,0,2.93-.9,2.93-2.4s-.98-2.4-2.93-2.4Z"/>
      <path class="cls-3" d="M387.58,173.54h-4.41v-2.6h12v2.6h-4.41v11.17h-3.19v-11.17Z"/>
      <path class="cls-3" d="M413.46,170.94v13.77h-2.62l-6.86-8.36v8.36h-3.15v-13.77h2.64l6.84,8.36v-8.36h3.15Z"/>
      <path class="cls-3" d="M431.33,182.15v2.56h-10.66v-13.77h10.4v2.56h-7.24v2.99h6.39v2.48h-6.39v3.19h7.49Z"/>
      <path class="cls-3" d="M446.59,184.71l-2.66-3.84h-2.93v3.84h-3.19v-13.77h5.96c3.68,0,5.98,1.91,5.98,5,0,2.06-1.04,3.58-2.83,4.35l3.09,4.43h-3.42ZM443.6,173.54h-2.6v4.8h2.6c1.95,0,2.93-.9,2.93-2.4s-.98-2.4-2.93-2.4Z"/>
    </g>
  </g>
  <path class="cls-1" d="M105.15,88.36v18.91c-1.88-.22-3.21-.33-4.75-.33-8.52,0-14.38,4.31-14.38,14.82v27.54h-21.01v-59.94h20.01v7.19c4.31-5.42,11.28-8.18,20.13-8.18ZM310.05,116.01v33.29h-19.57v-7.74c-2.98,5.75-8.96,8.74-17.69,8.74-14.38,0-22.34-8.07-22.34-18.47,0-11.06,8.07-17.91,26.65-17.91h11.94c-.33-6.08-4.42-9.51-12.72-9.51-5.75,0-12.16,1.99-16.26,5.2l-7.08-14.27c6.86-4.53,17.03-6.97,26.43-6.97,19.46,0,30.63,8.63,30.63,27.65ZM289.04,130.05v-5.2h-9.07c-6.74,0-9.18,2.43-9.18,6.08s2.88,6.08,7.85,6.08c4.65,0,8.74-2.21,10.4-6.97ZM416.44,89.36l-21.34,59.94h-20.35l-11.28-32.62-11.72,32.62h-20.35l-21.34-59.94h19.91l12.28,36.27,12.72-36.27h17.91l12.39,36.6,12.72-36.6h18.47ZM416.44,144.1l6.3-14.37c5.53,3.43,13.6,5.53,20.9,5.53s9.4-1.55,9.4-4.09c0-8.07-35.39,1.11-35.39-22.89,0-11.28,10.4-19.91,29.2-19.91,8.4,0,17.69,1.77,23.66,5.09l-6.3,14.27c-5.97-3.32-11.94-4.42-17.25-4.42-7.08,0-9.62,1.99-9.62,4.2,0,8.29,35.28-.66,35.28,23.11,0,11.06-10.17,19.69-29.64,19.69-10.17,0-20.68-2.54-26.54-6.19ZM216.06,88.36c-6.97,0-12.61,1.99-16.7,6.19v-27.31h-21.01v82.05h20.01v-5.97c3.98,4.76,9.84,6.97,17.69,6.97,16.26,0,29.41-11.94,29.41-31.08s-13.16-30.85-29.41-30.85ZM211.91,133.18c-7.65,0-13.85-6.2-13.85-13.85s6.2-13.85,13.85-13.85,13.85,6.2,13.85,13.85-6.2,13.85-13.85,13.85ZM140.47,150.38c-17.92,0-32.51-14.58-32.51-32.5s14.58-32.51,32.51-32.51,32.51,14.58,32.51,32.51-14.58,32.5-32.51,32.5ZM140.47,102.03c-8.74,0-15.84,7.11-15.84,15.84s7.1,15.84,15.84,15.84,15.84-7.11,15.84-15.84-7.1-15.84-15.84-15.84ZM156.46,67.16c-4.75,0-8.6,3.85-8.6,8.6s3.85,8.6,8.6,8.6,8.6-3.85,8.6-8.6-3.85-8.6-8.6-8.6Z"/>
</svg>