<svg xmlns="http://www.w3.org/2000/svg" width="113.539" height="154.794" viewBox="0 0 113.539 154.794">
  <g id="Group_15" data-name="Group 15" transform="translate(-118.989 -69.478)">
    <g id="Group_14" data-name="Group 14" transform="translate(118.989 89.462)">
      <g id="Group_13" data-name="Group 13">
        <g id="Group_1" data-name="Group 1">
          <path id="Path_2" data-name="Path 2" d="M237.712,148.619a12.876,12.876,0,0,0-1.8-.569,6.081,6.081,0,0,0-1.261-.131,5.3,5.3,0,0,0-4.557,2.191c-2.21,3.67,1.148,8.013,3.584,10.463q1.666-.252,3.369-.386c-2.255-2.523-4.618-6.269-2.674-9.5A4.9,4.9,0,0,1,237.712,148.619Z" transform="translate(-184.21 -135.811)" fill="#000"/>
          <path id="Path_3" data-name="Path 3" d="M256.659,155.083a2.538,2.538,0,0,0-5.076,0,2.538,2.538,0,0,0,5.076,0Z" transform="translate(-197.335 -138.558)" fill="#000"/>
          <path id="Path_4" data-name="Path 4" d="M220.623,148.974a5.9,5.9,0,0,1,.709-.94,5.088,5.088,0,0,0-3.879,2.145c-2.5,4.146,2.112,9.151,4.471,11.314q.771-.188,1.551-.352A16.778,16.778,0,0,1,220,155.409,7.559,7.559,0,0,1,220.623,148.974Z" transform="translate(-176.743 -135.878)" fill="#000"/>
          <path id="Path_5" data-name="Path 5" d="M285.761,155.408a16.75,16.75,0,0,1-3.463,5.721q.781.163,1.552.352c2.361-2.167,6.957-7.166,4.462-11.307a5.1,5.1,0,0,0-3.88-2.147,5.948,5.948,0,0,1,.71.942A7.559,7.559,0,0,1,285.761,155.408Z" transform="translate(-215.484 -135.875)" fill="#000"/>
          <path id="Path_6" data-name="Path 6" d="M215.911,156.217a56.571,56.571,0,0,0-19.737-12.861,19.23,19.23,0,0,0,2.75-5.254,11.153,11.153,0,0,0-11-15.005,12.426,12.426,0,0,0-2.464.242c-.162.025-1.3.286-2.765.637a6.832,6.832,0,0,0-13.5.278c-1.92-.485-3.582-.88-3.785-.912a12.525,12.525,0,0,0-2.482-.244,11.154,11.154,0,0,0-11,15,19.488,19.488,0,0,0,2.907,5.471,56.774,56.774,0,1,0,61.083,12.644Zm-41.87-31.747,1.441.061-.231-1.339h1.426l-.2,1.339,1.414-.061v1.368l-1.385-.052.262,1.253H175.16l.266-1.253-1.384.052Zm1.751,123.7a51.8,51.8,0,0,1-12.9-101.98l-.024-.28c-1.78-1.575-4.691-4.606-5.786-8.052a7.559,7.559,0,0,1,.618-6.438c1.716-2.849,5.461-3.739,8.275-3.146a8.086,8.086,0,0,1,.837.215,8.843,8.843,0,0,1,2.616-.39,8.362,8.362,0,0,1,1.717.175,20.787,20.787,0,0,1,3.186,1.067,1.462,1.462,0,0,1,2.889-.012,20.878,20.878,0,0,1,3.181-1.06,8.336,8.336,0,0,1,1.692-.169,8.869,8.869,0,0,1,2.618.391,8.506,8.506,0,0,1,.86-.221c2.787-.587,6.533.3,8.249,3.152a7.56,7.56,0,0,1,.618,6.438c-1.041,3.279-5.824,8.12-5.824,8.12l-.017.193a51.808,51.808,0,0,1-12.8,102Z" transform="translate(-118.989 -118.323)" fill="#000"/>
          <path id="Path_7" data-name="Path 7" d="M257.134,168.7a1.467,1.467,0,0,0-2.934,0,1.467,1.467,0,0,0,2.934,0Z" transform="translate(-198.881 -147.228)" fill="#000"/>
          <path id="Path_8" data-name="Path 8" d="M269.323,150.691c1.947,3.231-.424,6.985-2.681,9.507,1.081.09,2.153.21,3.212.369,2.436-2.45,5.787-6.789,3.578-10.456a5.3,5.3,0,0,0-4.557-2.191,6.042,6.042,0,0,0-1.236.125,12.67,12.67,0,0,0-1.776.556A4.934,4.934,0,0,1,269.323,150.691Z" transform="translate(-205.773 -135.811)" fill="#000"/>
        </g>
        <g id="Group_12" data-name="Group 12" transform="translate(8.007 26.187)">
          <g id="Group_9" data-name="Group 9">
            <g id="Group_2" data-name="Group 2" transform="translate(39.164 9.486)">
              <path id="Path_9" data-name="Path 9" d="M278.637,207.78a1,1,0,0,1-.917.331l-.111.415.623.134-.689,2.928.689.147.858-3.884Z" transform="translate(-259.845 -206.853)" fill="#000"/>
              <path id="Path_10" data-name="Path 10" d="M249.663,207.38a.957.957,0,0,0,.412-.886c-.042-.734-.607-1.029-1.276-.973s-1.184.412-1.149,1.137a1.009,1.009,0,0,0,.52.83.921.921,0,0,0-.5.981,1.179,1.179,0,0,0,1.4,1.067c.744-.058,1.294-.494,1.244-1.256A.91.91,0,0,0,249.663,207.38Zm-.828-1.248a.493.493,0,0,1,.543.455.479.479,0,0,1-.491.521.466.466,0,0,1-.505-.451A.476.476,0,0,1,248.835,206.132Zm.193,2.785a.5.5,0,0,1-.623-.529.534.534,0,0,1,.54-.633.587.587,0,0,1,.662.56C249.623,208.657,249.469,208.877,249.028,208.917Z" transform="translate(-242.182 -205.514)" fill="#000"/>
              <path id="Path_11" data-name="Path 11" d="M235.023,207.4a1.171,1.171,0,0,1-.737.736l.1.413.583-.129.637,2.925.7-.125-.846-3.909Z" transform="translate(-234.286 -206.576)" fill="#000"/>
              <path id="Path_12" data-name="Path 12" d="M263.761,205.556c-.921-.07-1.333.471-1.391,1.28a1.042,1.042,0,0,0,.945,1.236,1.654,1.654,0,0,0,.876-.243l-.038.36c-.053.637-.279.8-.672.786a.448.448,0,0,1-.432-.511l-.746-.055a1.115,1.115,0,0,0,1.141,1.172,1.21,1.21,0,0,0,1.4-1.245l.119-1.315A1.226,1.226,0,0,0,263.761,205.556Zm.486,1.486-.015.225a1.133,1.133,0,0,1-.626.26c-.331-.018-.558-.243-.515-.69.036-.415.224-.683.6-.658C264.1,206.2,264.289,206.422,264.247,207.042Z" transform="translate(-250.84 -205.535)" fill="#000"/>
            </g>
            <g id="Group_5" data-name="Group 5" transform="translate(0 10.709)">
              <g id="Group_3" data-name="Group 3" transform="translate(3.157 53.174)">
                <path id="Path_13" data-name="Path 13" d="M282.806,405.649l.391,1.237,1.219-.371.187.668c.243.866-.038,1.5-.775,1.728a2.6,2.6,0,0,1-.523.072c-.522,0-.9-.351-1.126-1.119l-1.087-3.755c-.268-.958-.018-1.5.844-1.749.77-.224,1.3.17,1.614,1.216l1.538-.425c-.5-1.52-1.366-2.27-2.546-2.27a4.026,4.026,0,0,0-1,.132c-1.824.543-2.485,1.817-1.909,3.793l.951,3.262c.558,1.964,1.786,2.721,3.644,2.2a2.3,2.3,0,0,0,1.3-1.313l.076-.165.543.761.734-.207-1.3-4.507Z" transform="translate(-224.954 -375.348)" fill="#000"/>
                <path id="Path_14" data-name="Path 14" d="M150.806,347.276l-.579-1.479-.5.2a1.943,1.943,0,0,1-.8.18,1.1,1.1,0,0,1-1.045-.829,1.16,1.16,0,0,1-.055-.992,1.53,1.53,0,0,1,.921-.754l3.628-1.446a1.574,1.574,0,0,1,.759-.184,1.157,1.157,0,0,1,1.071.827,1.277,1.277,0,0,1,.057.979,1.522,1.522,0,0,1-.935.745l-.158.069.609,1.493a3.174,3.174,0,0,0,1.859-1.637,2.994,2.994,0,0,0-.149-2.171,2.542,2.542,0,0,0-2.364-1.888,4.184,4.184,0,0,0-1.6.363l-3.174,1.278a3.258,3.258,0,0,0-1.918,1.67,2.831,2.831,0,0,0,.155,2.179c.737,1.8,2.043,2.292,3.958,1.52Z" transform="translate(-146.278 -339.604)" fill="#000"/>
                <path id="Path_15" data-name="Path 15" d="M163.422,357.928l-.842-1.37L154.7,361.63l2.434,3.784,1.205-.748-1.613-2.459Z" transform="translate(-151.256 -349.159)" fill="#000"/>
                <path id="Path_16" data-name="Path 16" d="M217.708,398.547l-2.291-.8-3.1,8.821,2.4.833a4.686,4.686,0,0,0,1.485.3,2.3,2.3,0,0,0,2.306-1.782,2.379,2.379,0,0,0-.5-2.571l-.116-.131.171-.04a2.117,2.117,0,0,0,1.651-1.423C220.376,399.908,219.005,398.99,217.708,398.547Zm-.652,6.715a1.351,1.351,0,0,1-1.315,1.011,2,2,0,0,1-.64-.113l-.824-.3.962-2.778.7.229a1.652,1.652,0,0,1,1.007.748A1.219,1.219,0,0,1,217.056,405.263Zm1.1-3.855a1.184,1.184,0,0,1-1.209.813,1.832,1.832,0,0,1-.574-.109l-.708-.272.821-2.344.786.284a1.429,1.429,0,0,1,.851.649A1.272,1.272,0,0,1,218.158,401.408Z" transform="translate(-185.301 -373.497)" fill="#000"/>
                <path id="Path_17" data-name="Path 17" d="M238.974,403.871l-2.518-.344-1.238,9.257,1.572.214.534-3.866,1.025.144,1.052,4.073,1.733.252-1.222-4.434.109-.035a2.152,2.152,0,0,0,1.661-2.1,2.653,2.653,0,0,0-.459-2.142A3.371,3.371,0,0,0,238.974,403.871Zm1.123,2.89c-.134,1.053-.768,1.279-1.273,1.279a1.716,1.716,0,0,1-.3-.044l-1.032-.15.375-2.8,1.069.1a1.5,1.5,0,0,1,.945.5A1.463,1.463,0,0,1,240.1,406.761Z" transform="translate(-198.83 -376.911)" fill="#000"/>
                <path id="Path_18" data-name="Path 18" d="M263.647,404.5l-1.616.118.481,6.543a1.849,1.849,0,0,1-.256,1.173,1.44,1.44,0,0,1-1.015.447c-.941.051-1.429-.411-1.508-1.407l-.484-6.558-1.6.113.5,6.574a2.534,2.534,0,0,0,2.791,2.672h.374c1.369-.1,2.964-.716,2.777-3.1Z" transform="translate(-212.085 -377.485)" fill="#000"/>
                <path id="Path_19" data-name="Path 19" d="M302.2,397.774l.626,1.127,1.108-.6.312.631a1.615,1.615,0,0,1,.231,1.056,1.227,1.227,0,0,1-.616.77c-.826.43-1.347.2-1.844-.7l-1.8-3.445c-.443-.9-.316-1.491.464-1.882.74-.375,1.324-.072,1.848.867l1.409-.753a2.95,2.95,0,0,0-2.482-1.762,3.328,3.328,0,0,0-1.423.392,3.038,3.038,0,0,0-1.537,1.6,3.381,3.381,0,0,0,.426,2.517l1.6,3c.936,1.824,2.272,2.289,3.96,1.405a2.007,2.007,0,0,0,1.043-1.537l.026-.166.714.632.658-.335-2.157-4.169Z" transform="translate(-236.162 -370.742)" fill="#000"/>
                <path id="Path_20" data-name="Path 20" d="M346.453,338.473l-.322.783,6.31,5.191-.057.146-.082.021-8.049-.845-.34.774,9.722.955.319-.754Z" transform="translate(-263.055 -338.473)" fill="#000"/>
                <path id="Path_21" data-name="Path 21" d="M319.7,388.8,318,386.665l1.879-1.5-.868-1.1-1.9,1.494-1.5-1.883,2.477-1.975-.888-1.1-3.718,2.98,5.846,7.3,3.808-3.039-.883-1.1Z" transform="translate(-245.076 -363.369)" fill="#000"/>
                <path id="Path_22" data-name="Path 22" d="M176.769,372.328l-4.822,4.492a1.674,1.674,0,0,1-1.088.5,1.413,1.413,0,0,1-1-.5,1.451,1.451,0,0,1-.418-1.051,1.579,1.579,0,0,1,.6-.974l4.8-4.489-1.087-1.187-4.826,4.5a2.772,2.772,0,0,0-1.063,2.076,3.051,3.051,0,0,0,1.009,2.076,2.612,2.612,0,0,0,4.129.232l4.825-4.49Z" transform="translate(-159.04 -356.581)" fill="#000"/>
                <path id="Path_23" data-name="Path 23" d="M336.465,357.846l-.563.79,1.8,6.075-.086.137-.079-.047-4-2.794-.483.682,7.638,5.364.5-.67-2.572-1.812-.693-2.529,5.857.622.567-.772-6.687-.713Z" transform="translate(-256.637 -349.92)" fill="#000"/>
                <path id="Path_24" data-name="Path 24" d="M191.095,385.267l-2-1.4-5.406,7.637,2.1,1.466c1.615,1.149,3.045,1.012,4.035-.4a2.309,2.309,0,0,0,.222-2.607l-.076-.168h.192a2.179,2.179,0,0,0,2.011-.9C193.286,387.316,192.213,386.056,191.095,385.267Zm-2.488,6.278a1.406,1.406,0,0,1-1.143.672,1.9,1.9,0,0,1-.976-.343l-.727-.523,1.726-2.422.6.439a2.019,2.019,0,0,1,.791.984A1.48,1.48,0,0,1,188.606,391.545Zm2.128-3.422a1.1,1.1,0,0,1-.96.5,1.7,1.7,0,0,1-.954-.324l-.584-.445,1.424-2.02.68.482A1.169,1.169,0,0,1,190.734,388.123Z" transform="translate(-168.385 -365.294)" fill="#000"/>
              </g>
              <g id="Group_4" data-name="Group 4">
                <path id="Path_25" data-name="Path 25" d="M365.546,314.2a5.733,5.733,0,0,0,3.88-4.926A5.947,5.947,0,0,0,365.546,314.2Z" transform="translate(-272.68 -268.045)" fill="#000"/>
                <path id="Path_26" data-name="Path 26" d="M361.211,260.384a5.953,5.953,0,0,0-1.107,6.2A5.764,5.764,0,0,0,361.211,260.384Z" transform="translate(-269.207 -239.158)" fill="#000"/>
                <path id="Path_27" data-name="Path 27" d="M366.068,289.344a5.731,5.731,0,0,0,2.332-5.828A5.887,5.887,0,0,0,366.068,289.344Z" transform="translate(-272.91 -252.826)" fill="#000"/>
                <path id="Path_28" data-name="Path 28" d="M355.838,250.572a5.822,5.822,0,0,0-.047,6.279A5.749,5.749,0,0,0,355.838,250.572Z" transform="translate(-266.387 -233.361)" fill="#000"/>
                <path id="Path_29" data-name="Path 29" d="M367.406,301.23a5.746,5.746,0,0,0,2.8-5.651A5.978,5.978,0,0,0,367.406,301.23Z" transform="translate(-273.742 -259.955)" fill="#000"/>
                <path id="Path_30" data-name="Path 30" d="M350.943,271.153a5.77,5.77,0,0,0-5.5-3.09A5.928,5.928,0,0,0,350.943,271.153Z" transform="translate(-260.8 -243.678)" fill="#000"/>
                <path id="Path_31" data-name="Path 31" d="M336.557,244.739a5.872,5.872,0,0,0-6.07-1.87A6.012,6.012,0,0,0,336.557,244.739Z" transform="translate(-251.964 -228.668)" fill="#000"/>
                <path id="Path_32" data-name="Path 32" d="M347.062,263a5.806,5.806,0,0,0-5.78-2.519A5.941,5.941,0,0,0,347.062,263Z" transform="translate(-258.343 -239.158)" fill="#000"/>
                <path id="Path_33" data-name="Path 33" d="M341.747,253.741a5.759,5.759,0,0,0-5.982-1.986A5.936,5.936,0,0,0,341.747,253.741Z" transform="translate(-255.083 -233.937)" fill="#000"/>
                <path id="Path_34" data-name="Path 34" d="M343.814,231a5.873,5.873,0,0,0,.362,6.258A5.756,5.756,0,0,0,343.814,231Z" transform="translate(-259.402 -221.797)" fill="#000"/>
                <path id="Path_35" data-name="Path 35" d="M328.8,214.688a5.886,5.886,0,0,0,.993,6.225A5.756,5.756,0,0,0,328.8,214.688Z" transform="translate(-250.676 -212.158)" fill="#000"/>
                <path id="Path_36" data-name="Path 36" d="M336.417,222.366a5.9,5.9,0,0,0,.718,6.254A5.781,5.781,0,0,0,336.417,222.366Z" transform="translate(-255.119 -216.695)" fill="#000"/>
                <path id="Path_37" data-name="Path 37" d="M350.14,240.562a5.884,5.884,0,0,0,.036,6.282A5.741,5.741,0,0,0,350.14,240.562Z" transform="translate(-263.05 -227.446)" fill="#000"/>
                <path id="Path_38" data-name="Path 38" d="M363.512,277.928a5.734,5.734,0,0,0,1.7-6.038A5.949,5.949,0,0,0,363.512,277.928Z" transform="translate(-271.327 -245.957)" fill="#000"/>
                <path id="Path_39" data-name="Path 39" d="M350.194,277a6.027,6.027,0,0,0,4.929,3.945A5.779,5.779,0,0,0,350.194,277Z" transform="translate(-263.609 -248.979)" fill="#000"/>
                <path id="Path_40" data-name="Path 40" d="M321.834,214.393a5.832,5.832,0,0,0-2.264-5.889A5.9,5.9,0,0,0,321.834,214.393Z" transform="translate(-245.425 -208.504)" fill="#000"/>
                <path id="Path_41" data-name="Path 41" d="M321.547,229.012a5.805,5.805,0,0,0-6.234-1.062A6.011,6.011,0,0,0,321.547,229.012Z" transform="translate(-242.999 -219.709)" fill="#000"/>
                <path id="Path_42" data-name="Path 42" d="M150.587,266.584a5.952,5.952,0,0,0-1.107-6.2A5.765,5.765,0,0,0,150.587,266.584Z" transform="translate(-144.737 -239.158)" fill="#000"/>
                <path id="Path_43" data-name="Path 43" d="M143.773,289.344a5.888,5.888,0,0,0-2.332-5.828A5.729,5.729,0,0,0,143.773,289.344Z" transform="translate(-140.184 -252.826)" fill="#000"/>
                <path id="Path_44" data-name="Path 44" d="M155.08,250.572a5.748,5.748,0,0,0,.047,6.279A5.822,5.822,0,0,0,155.08,250.572Z" transform="translate(-147.784 -233.361)" fill="#000"/>
                <path id="Path_45" data-name="Path 45" d="M141.967,301.23a5.978,5.978,0,0,0-2.8-5.651A5.746,5.746,0,0,0,141.967,301.23Z" transform="translate(-138.884 -259.955)" fill="#000"/>
                <path id="Path_46" data-name="Path 46" d="M154.7,271.153a5.927,5.927,0,0,0,5.5-3.09A5.769,5.769,0,0,0,154.7,271.153Z" transform="translate(-148.099 -243.678)" fill="#000"/>
                <path id="Path_47" data-name="Path 47" d="M168.269,244.739a6.012,6.012,0,0,0,6.07-1.87A5.872,5.872,0,0,0,168.269,244.739Z" transform="translate(-156.115 -228.668)" fill="#000"/>
                <path id="Path_48" data-name="Path 48" d="M158.184,263a5.94,5.94,0,0,0,5.779-2.519A5.8,5.8,0,0,0,158.184,263Z" transform="translate(-150.156 -239.158)" fill="#000"/>
                <path id="Path_49" data-name="Path 49" d="M163.206,253.741a5.936,5.936,0,0,0,5.982-1.986A5.758,5.758,0,0,0,163.206,253.741Z" transform="translate(-153.123 -233.937)" fill="#000"/>
                <path id="Path_50" data-name="Path 50" d="M167.094,231a5.756,5.756,0,0,0-.362,6.258A5.874,5.874,0,0,0,167.094,231Z" transform="translate(-154.759 -221.797)" fill="#000"/>
                <path id="Path_51" data-name="Path 51" d="M181.9,214.688a5.757,5.757,0,0,0-.993,6.225A5.887,5.887,0,0,0,181.9,214.688Z" transform="translate(-163.274 -212.158)" fill="#000"/>
                <path id="Path_52" data-name="Path 52" d="M174.4,222.366a5.781,5.781,0,0,0-.718,6.254A5.9,5.9,0,0,0,174.4,222.366Z" transform="translate(-158.954 -216.695)" fill="#000"/>
                <path id="Path_53" data-name="Path 53" d="M160.79,240.562a5.741,5.741,0,0,0-.036,6.282A5.885,5.885,0,0,0,160.79,240.562Z" transform="translate(-151.133 -227.446)" fill="#000"/>
                <path id="Path_54" data-name="Path 54" d="M146.848,277.928a5.95,5.95,0,0,0-1.7-6.038A5.733,5.733,0,0,0,146.848,277.928Z" transform="translate(-142.285 -245.957)" fill="#000"/>
                <path id="Path_55" data-name="Path 55" d="M151.351,280.949A6.026,6.026,0,0,0,156.279,277,5.778,5.778,0,0,0,151.351,280.949Z" transform="translate(-146.118 -248.979)" fill="#000"/>
                <path id="Path_56" data-name="Path 56" d="M190.306,208.5a5.833,5.833,0,0,0-2.265,5.889A5.9,5.9,0,0,0,190.306,208.5Z" transform="translate(-167.703 -208.504)" fill="#000"/>
                <path id="Path_57" data-name="Path 57" d="M194.268,213.915a6.015,6.015,0,0,0,5.321-3.4A5.773,5.773,0,0,0,194.268,213.915Z" transform="translate(-171.477 -209.686)" fill="#000"/>
                <path id="Path_58" data-name="Path 58" d="M183.043,229.012a6.011,6.011,0,0,0,6.233-1.062A5.8,5.8,0,0,0,183.043,229.012Z" transform="translate(-164.844 -219.709)" fill="#000"/>
                <path id="Path_59" data-name="Path 59" d="M188.965,222.093a6.011,6.011,0,0,0,6.233-1.062A5.8,5.8,0,0,0,188.965,222.093Z" transform="translate(-168.343 -215.621)" fill="#000"/>
                <path id="Path_60" data-name="Path 60" d="M175.55,236.82a5.952,5.952,0,0,0,6.182-1.353A5.864,5.864,0,0,0,175.55,236.82Z" transform="translate(-160.417 -224.216)" fill="#000"/>
                <path id="Path_61" data-name="Path 61" d="M148.05,301.858a5.867,5.867,0,0,0,3.812-4.977A5.722,5.722,0,0,0,148.05,301.858Z" transform="translate(-144.166 -260.723)" fill="#000"/>
                <path id="Path_62" data-name="Path 62" d="M148.747,291.124a5.966,5.966,0,0,0,4.438-4.477A5.84,5.84,0,0,0,148.747,291.124Z" transform="translate(-144.58 -254.676)" fill="#000"/>
                <path id="Path_63" data-name="Path 63" d="M139.384,321.514A5.731,5.731,0,0,0,143.769,326,5.887,5.887,0,0,0,139.384,321.514Z" transform="translate(-139.047 -275.278)" fill="#000"/>
                <path id="Path_64" data-name="Path 64" d="M142.442,314.2a5.946,5.946,0,0,0-3.881-4.926A5.734,5.734,0,0,0,142.442,314.2Z" transform="translate(-138.561 -268.045)" fill="#000"/>
                <path id="Path_65" data-name="Path 65" d="M149.578,313.085a6.026,6.026,0,0,0,3.508-5.249A5.779,5.779,0,0,0,149.578,313.085Z" transform="translate(-145.06 -267.196)" fill="#000"/>
                <path id="Path_66" data-name="Path 66" d="M151.372,323.71a5.966,5.966,0,0,0,2.88-5.608A5.841,5.841,0,0,0,151.372,323.71Z" transform="translate(-146.094 -273.262)" fill="#000"/>
                <path id="Path_67" data-name="Path 67" d="M311.64,213.915a5.773,5.773,0,0,0-5.321-3.4A6.016,6.016,0,0,0,311.64,213.915Z" transform="translate(-237.684 -209.686)" fill="#000"/>
                <path id="Path_68" data-name="Path 68" d="M315.625,222.093a5.8,5.8,0,0,0-6.234-1.062A6.011,6.011,0,0,0,315.625,222.093Z" transform="translate(-239.5 -215.621)" fill="#000"/>
                <path id="Path_69" data-name="Path 69" d="M329.113,236.82a5.864,5.864,0,0,0-6.182-1.353A5.952,5.952,0,0,0,329.113,236.82Z" transform="translate(-247.5 -224.216)" fill="#000"/>
                <path id="Path_70" data-name="Path 70" d="M356.22,296.881a5.867,5.867,0,0,0,3.812,4.977A5.722,5.722,0,0,0,356.22,296.881Z" transform="translate(-267.169 -260.723)" fill="#000"/>
                <path id="Path_71" data-name="Path 71" d="M358.435,291.124A5.84,5.84,0,0,0,354,286.647,5.966,5.966,0,0,0,358.435,291.124Z" transform="translate(-265.856 -254.676)" fill="#000"/>
                <path id="Path_72" data-name="Path 72" d="M363.489,326a5.731,5.731,0,0,0,4.385-4.491A5.887,5.887,0,0,0,363.489,326Z" transform="translate(-271.464 -275.278)" fill="#000"/>
                <path id="Path_73" data-name="Path 73" d="M355.41,307.836a6.025,6.025,0,0,0,3.508,5.249A5.779,5.779,0,0,0,355.41,307.836Z" transform="translate(-266.69 -267.196)" fill="#000"/>
                <path id="Path_74" data-name="Path 74" d="M355.024,318.1a5.966,5.966,0,0,0,2.88,5.608A5.843,5.843,0,0,0,355.024,318.1Z" transform="translate(-266.435 -273.262)" fill="#000"/>
              </g>
            </g>
            <g id="Group_8" data-name="Group 8" transform="translate(35.902)">
              <g id="Group_7" data-name="Group 7" transform="translate(1.754 2.288)">
                <path id="Path_75" data-name="Path 75" d="M241.736,195.239c-5.57,0-11.917.794-11.058,1.231s4.334.984,11.058.984c6.683,0,10.148-.539,11.018-.984.835-.437-5.469-1.231-11.018-1.231Z" transform="translate(-230.6 -192.245)" fill="#000"/>
                <g id="Group_6" data-name="Group 6" transform="translate(0)">
                  <path id="Path_76" data-name="Path 76" d="M256.373,187.922a.977.977,0,1,0,0,1.954.977.977,0,0,0,0-1.954Z" transform="translate(-245.238 -187.922)" fill="#000"/>
                  <path id="Path_77" data-name="Path 77" d="M281.146,190.311a.977.977,0,1,0,0,1.954.977.977,0,0,0,0-1.954Z" transform="translate(-259.876 -189.334)" fill="#000"/>
                  <path id="Path_78" data-name="Path 78" d="M231.6,190.311a.977.977,0,1,0,0,1.954.977.977,0,0,0,0-1.954Z" transform="translate(-230.6 -189.334)" fill="#000"/>
                  <path id="Path_79" data-name="Path 79" d="M268.781,189.45a.665.665,0,1,0,0,1.329.665.665,0,0,0,0-1.329Z" transform="translate(-252.759 -188.825)" fill="#000"/>
                  <path id="Path_80" data-name="Path 80" d="M244.832,189.45a.664.664,0,0,0,0,1.329.666.666,0,1,0,0-1.329Z" transform="translate(-238.618 -188.825)" fill="#000"/>
                </g>
              </g>
              <path id="Path_81" data-name="Path 81" d="M226.313,184.1l.125,1.441a45.722,45.722,0,0,1,25.44-.021L252,184.1a46.9,46.9,0,0,0-12.8-1.771A47.378,47.378,0,0,0,226.313,184.1Z" transform="translate(-226.313 -182.329)" fill="#000"/>
            </g>
          </g>
          <g id="Group_11" data-name="Group 11" transform="translate(12.165 15.587)">
            <path id="Path_82" data-name="Path 82" d="M240.8,256.655a36.25,36.25,0,1,0-36.228,36.269A36.225,36.225,0,0,0,240.8,256.655Zm-36.228,31.784a31.772,31.772,0,1,1,31.756-31.784,31.808,31.808,0,0,1-31.756,31.784Z" transform="translate(-168.296 -220.427)" fill="#000"/>
            <g id="Group_10" data-name="Group 10" transform="translate(5.667 5.666)">
              <path id="Path_83" data-name="Path 83" d="M183.141,257.12a30.738,30.738,0,0,0-.112,15.059l37.022-37.022a30.73,30.73,0,0,0-15.058.112Z" transform="translate(-182.147 -234.275)" fill="#000"/>
              <path id="Path_84" data-name="Path 84" d="M195.742,290.478a30.3,30.3,0,0,0,7.48,7.466l42.594-42.593a30.3,30.3,0,0,0-7.466-7.48Z" transform="translate(-190.18 -242.308)" fill="#000"/>
              <path id="Path_85" data-name="Path 85" d="M276.027,291.133,239,328.155a30.731,30.731,0,0,0,15.058-.113l21.852-21.852A30.73,30.73,0,0,0,276.027,291.133Z" transform="translate(-215.742 -267.871)" fill="#000"/>
            </g>
          </g>
        </g>
      </g>
    </g>
    <path id="Path_86" data-name="Path 86" d="M246.483,69.478l2.046,5.532,5.8.1-4.538,3.636,1.6,5.784-4.91-3.379-4.91,3.379,1.6-5.784-4.538-3.636,5.8-.1Z" transform="translate(-70.695 0)" fill="#000"/>
  </g>
</svg>