<svg width="1533" height="1537" viewBox="0 0 1533 1537" fill="none" xmlns="http://www.w3.org/2000/svg">
<path d="M1173.71 1.89954C1151.04 6.96619 1134.11 17.7662 1121.71 35.0996C1100.78 64.4329 1098.11 97.0996 1114.51 123.9C1126.78 144.166 1124.64 158.966 1105.58 183.366C1092.78 199.9 1087.44 200.7 1069.98 189.233C1044.24 172.433 980.376 150.3 925.842 139.233C881.042 130.166 865.442 128.833 804.376 128.433C736.909 128.166 741.576 129.5 724.242 105.233C691.309 58.8329 649.176 30.8329 594.376 18.9662C578.242 15.4996 534.509 15.4996 518.376 19.0996C472.776 28.9662 429.709 54.2996 402.109 87.4996C371.842 123.766 356.509 163.5 354.776 209.9C353.976 232.833 356.376 252.033 363.176 276.433C368.642 296.033 368.909 305.766 363.976 315.233C362.509 318.166 354.509 328.3 346.376 337.9C301.176 390.3 276.242 430.166 249.709 492.566C224.509 551.9 209.842 607.633 203.042 670.566C200.642 692.966 200.109 710.566 201.709 713.233C203.576 716.3 261.576 712.966 274.109 709.1C280.776 706.966 282.376 702.433 282.376 685.633C282.376 668.7 285.976 642.566 291.576 616.433C306.376 549.5 337.576 482.566 383.442 419.366C405.442 389.233 412.642 383.366 427.176 383.366C434.776 383.366 437.309 384.3 457.842 394.3C482.642 406.3 501.176 412.833 522.376 417.366C542.509 421.766 580.909 421.766 600.642 417.5C685.976 399.1 746.776 329.5 758.376 237.233C760.376 221.233 763.442 214.3 770.109 211.1C781.442 205.766 836.509 206.166 876.376 212.033C918.376 218.033 966.776 231.366 1013.84 249.633C1040.51 259.9 1046.38 264.833 1046.38 276.3C1046.38 285.366 1043.84 290.566 1022.78 324.566C1001.98 358.433 960.909 427.1 943.576 457.1C929.709 481.366 924.776 487.366 917.709 488.7C912.509 489.633 910.509 489.233 887.176 482.033C878.509 479.366 863.309 475.633 853.176 473.633C836.909 470.433 831.842 470.166 803.709 470.033C778.509 469.9 769.576 470.433 758.376 472.433C717.309 479.766 678.909 496.033 647.042 519.5C631.176 531.233 603.842 558.833 593.176 573.9C567.709 610.166 552.242 646.7 544.376 690.433C542.509 700.433 540.109 711.1 538.909 714.166C536.242 721.5 529.442 727.366 520.642 729.766C516.909 730.833 495.709 733.366 473.709 735.233C416.642 740.166 318.642 749.5 234.909 757.9C156.376 765.766 154.242 765.766 140.642 759.5C136.776 757.766 128.776 751.766 122.642 746.3C105.442 730.566 92.6425 725.366 71.9758 725.233C39.0425 725.233 8.50913 750.033 1.5758 782.433C-1.89087 798.966 0.375797 815.1 8.24246 831.233C33.1758 881.5 100.776 884.7 133.042 837.1C143.976 821.233 152.242 817.233 177.042 816.3C204.776 815.233 208.109 817.633 210.242 839.9C211.842 856.7 219.976 889.9 229.176 918.433C250.776 984.7 282.642 1045.1 325.442 1101.5C347.042 1129.9 348.376 1134.43 342.776 1160.3C339.442 1175.9 339.042 1180.43 339.042 1201.23C339.176 1222.03 339.576 1226.17 342.776 1238.97C359.709 1306.83 410.909 1355.5 480.376 1370.03C493.709 1372.7 524.509 1373.1 538.376 1370.7C564.109 1366.17 591.442 1354.3 614.376 1337.77C633.976 1323.63 637.042 1322.17 649.709 1321.5C658.376 1321.1 665.176 1322.03 687.042 1326.43C734.642 1336.17 752.376 1337.77 805.709 1337.77C846.642 1337.9 855.042 1337.5 874.376 1334.83C913.842 1329.5 950.242 1321.5 981.709 1311.37C989.842 1308.83 1000.51 1306.03 1005.58 1305.23C1024.91 1302.17 1028.38 1296.17 1022.24 1276.43C1015.18 1253.63 1006.91 1239.23 997.442 1233.63C988.509 1228.43 980.642 1228.97 956.376 1236.3C884.376 1257.9 807.576 1264.03 733.709 1253.77C702.109 1249.5 688.909 1245.77 685.976 1240.7C684.776 1238.7 684.376 1228.17 684.376 1203.9C684.242 1168.03 683.576 1162.03 676.776 1141.23C663.576 1100.3 630.376 1064.03 585.976 1041.77C559.442 1028.3 535.976 1023.23 507.042 1024.3C477.976 1025.5 456.109 1032.03 425.976 1048.83C397.576 1064.7 393.442 1063.23 371.176 1029.63C334.242 973.633 309.176 916.966 293.709 854.433C287.976 831.233 286.776 821.9 288.909 815.5C291.976 806.433 297.709 804.566 332.376 801.9C377.976 798.433 432.242 793.233 468.376 789.1C513.976 783.766 521.976 783.233 528.509 785.1C541.309 788.566 547.576 796.433 556.242 820.033C571.176 860.566 590.242 891.366 618.376 920.433C663.042 966.566 717.709 992.166 782.509 997.233C811.842 999.5 849.176 995.633 877.042 987.233C892.776 982.433 905.976 981.5 913.709 984.566C923.042 988.033 928.376 996.033 949.976 1039.1C989.976 1118.83 1038.78 1212.43 1069.04 1267.23C1097.58 1318.97 1102.38 1330.43 1102.38 1346.7C1102.38 1356.97 1098.38 1368.97 1090.38 1382.97C1079.71 1401.5 1076.51 1412.3 1076.51 1429.9C1076.38 1458.57 1087.04 1482.17 1110.38 1505.37C1144.51 1539.37 1197.31 1545.77 1239.44 1521.1C1243.58 1518.57 1252.78 1510.83 1259.71 1503.9C1270.11 1493.63 1273.58 1488.97 1278.64 1479.1C1288.24 1460.43 1291.04 1449.37 1291.04 1428.57C1291.04 1408.7 1288.38 1397.23 1280.24 1380.83C1267.84 1356.03 1250.24 1338.97 1227.71 1329.77C1220.64 1326.83 1215.71 1326.03 1200.24 1325.1C1189.98 1324.43 1178.64 1323.1 1175.04 1322.03C1165.84 1319.23 1155.31 1311.5 1148.64 1302.57C1140.38 1291.63 1128.11 1269.5 1126.38 1262.3C1124.91 1256.7 1125.04 1255.37 1127.58 1250.3C1130.51 1244.3 1132.91 1242.17 1157.04 1225.23C1215.58 1184.17 1267.04 1132.03 1304.91 1075.9C1326.78 1043.5 1346.51 1006.57 1359.71 973.766C1367.71 954.033 1371.98 948.166 1382.51 942.966C1387.18 940.566 1395.58 937.633 1401.04 936.566C1473.71 921.9 1525.18 864.833 1531.58 791.633C1534.51 757.1 1527.18 724.166 1509.98 695.233C1500.38 678.966 1480.51 658.3 1463.84 647.233C1451.98 639.366 1446.64 636.566 1422.24 625.5C1411.44 620.566 1403.18 613.5 1399.04 605.1C1397.31 601.766 1393.04 588.966 1389.71 576.833C1355.71 452.966 1295.04 356.833 1197.18 271.5C1174.78 251.9 1174.11 251.766 1161.58 264.433C1154.64 271.633 1151.44 276.566 1143.18 293.233C1137.58 304.3 1133.04 314.566 1133.04 315.9C1133.04 321.1 1136.38 325.366 1147.44 334.033C1162.91 346.433 1192.24 375.9 1209.04 396.033C1253.18 448.966 1286.91 511.633 1308.38 580.566C1319.98 617.766 1319.18 620.833 1292.78 636.7C1250.38 662.166 1223.58 696.966 1212.11 741.1C1207.98 757.1 1206.64 782.433 1208.91 798.566C1215.04 840.566 1237.44 878.3 1272.64 906.3C1285.04 916.033 1290.38 923.5 1290.38 930.966C1290.38 944.033 1265.44 992.3 1238.51 1031.23C1207.71 1076.03 1162.78 1122.7 1117.84 1156.43C1101.18 1168.97 1093.71 1173.23 1087.84 1173.23C1079.58 1173.23 1076.11 1168.17 1049.31 1115.5C1025.71 1069.1 1005.71 1030.97 981.042 985.233C968.642 962.3 967.042 957.233 969.176 948.433C970.642 942.966 973.309 939.5 989.176 923.1C1017.04 894.033 1030.51 874.966 1045.84 843.233C1079.84 772.3 1079.31 691.766 1044.51 620.433C1030.91 592.7 1015.71 571.1 991.976 546.166C981.709 535.233 975.709 524.833 975.709 517.633C975.709 515.233 976.642 510.433 977.842 506.966C979.042 503.5 998.376 469.9 1020.78 432.566C1061.31 364.833 1117.31 269.9 1146.78 219.233C1155.31 204.566 1164.38 190.033 1167.04 186.966C1173.98 178.833 1183.04 174.966 1199.04 173.1C1223.71 170.433 1238.91 163.5 1254.38 148.033C1270.91 131.366 1278.38 112.7 1278.38 87.8995C1278.38 73.3662 1275.98 62.1663 1270.64 50.2996C1254.11 14.2996 1212.11 -6.63379 1173.71 1.89954ZM587.042 101.1C599.442 104.433 616.376 112.166 627.309 119.633C635.976 125.633 651.842 141.5 657.976 150.566C679.842 182.833 685.576 224.7 673.176 260.033C665.442 281.9 648.376 304.7 629.842 317.9C618.909 325.633 601.576 333.9 588.376 337.5C572.909 341.633 541.042 341.633 525.709 337.5C481.976 325.5 450.109 293.233 438.109 249.1C433.842 233.366 433.842 203.1 438.242 187.233C447.042 154.433 468.109 127.233 497.176 111.366C506.776 106.166 522.642 100.566 533.309 98.6996C545.176 96.5663 574.909 97.8995 587.042 101.1ZM824.776 525.233C861.042 528.433 891.442 539.233 921.709 559.633C967.842 590.7 998.509 636.566 1010.64 692.3C1014.91 712.033 1014.91 751.633 1010.51 771.9C1004.38 800.433 993.309 827.233 977.442 851.233C965.442 869.366 939.842 894.966 921.709 906.966C858.776 948.566 783.442 953.5 714.909 920.7C597.842 864.7 560.909 722.3 634.509 611.766C644.776 596.433 665.309 575.633 681.442 564.3C712.242 542.566 751.309 528.433 789.042 525.366C807.442 523.766 808.242 523.766 824.776 525.233ZM1397.98 700.966C1411.84 706.033 1421.44 712.433 1431.58 723.233C1458.38 752.033 1459.98 796.166 1435.18 828.833C1422.64 845.366 1402.38 856.833 1380.24 859.766C1340.64 865.233 1302.64 840.166 1290.91 800.566C1287.31 788.3 1287.58 767.366 1291.44 754.566C1300.38 725.766 1321.84 705.1 1350.24 697.9C1355.18 696.566 1362.78 696.166 1372.38 696.433C1384.78 696.833 1388.78 697.5 1397.98 700.966ZM535.042 1107.23C587.576 1120.57 619.176 1180.17 599.576 1229.1C581.442 1274.43 538.376 1299.77 493.976 1291.37C449.042 1282.7 417.976 1244.3 418.242 1197.37C418.242 1180.43 420.376 1171.37 427.976 1155.9C438.642 1133.9 462.776 1114.57 487.976 1107.9C500.242 1104.7 523.709 1104.43 535.042 1107.23Z" fill="white"/>
</svg>
