<svg version="1.1" id="Layer_1" xmlns="http://www.w3.org/2000/svg" xmlns:xlink="http://www.w3.org/1999/xlink" x="0px" y="0px"
	 width="100%" viewBox="0 0 135 139" enable-background="new 0 0 135 139" xml:space="preserve">
<path fill="#FFFFFF" opacity="1.000000" stroke="none" 
	d="
M1.000000,61.000000 
	C1.000000,40.666672 1.000000,20.833344 1.000000,1.000011 
	C45.999985,1.000007 90.999969,1.000007 135.999969,1.000004 
	C135.999969,47.333309 135.999969,93.666618 135.999985,139.999939 
	C91.000038,139.999969 46.000076,139.999969 1.000056,139.999985 
	C1.000000,113.833336 1.000000,87.666664 1.000000,61.000000 
M98.303612,33.296860 
	C98.174500,33.174232 98.045380,33.051605 98.003357,32.199509 
	C99.589241,29.651474 100.635719,27.077860 104.552658,26.548685 
	C108.786293,25.976723 110.351860,21.273853 108.802208,16.541845 
	C107.681984,13.121146 102.708580,11.393548 98.595154,12.996243 
	C95.478355,14.210628 93.925285,18.737461 94.930328,22.200478 
	C95.427544,23.913700 94.886101,25.928366 94.810570,27.912533 
	C86.197884,24.112160 78.534996,22.349445 70.488113,21.937063 
	C68.682503,21.844532 66.143784,21.532589 65.260811,20.343102 
	C59.945038,13.182034 51.321728,11.901893 44.548721,14.905629 
	C37.028214,18.240871 33.892025,25.684868 35.691429,34.379803 
	C35.973911,35.744770 35.350700,37.536522 34.616478,38.830269 
	C31.746788,43.886875 28.012136,48.558102 25.852278,53.881104 
	C23.862017,58.786121 23.478640,64.343147 22.354019,69.774414 
	C25.728207,69.774414 27.687456,69.774414 28.190521,69.774414 
	C31.672646,61.679955 34.807842,54.295910 38.029209,46.949657 
	C39.367805,43.897030 41.430035,43.601830 44.436451,45.029854 
	C54.978077,50.037029 65.715691,44.515831 68.129829,33.305744 
	C68.410805,32.001015 70.659782,30.040930 71.781059,30.175730 
	C77.940628,30.916235 84.033150,32.214584 90.846497,33.447735 
	C86.771751,40.223576 83.529976,45.614288 80.286232,51.008274 
	C76.969551,50.322510 73.689240,48.784157 70.657158,49.174423 
	C60.505192,50.481102 53.433620,53.913666 50.164829,66.267311 
	C49.489925,68.817932 48.896729,69.910515 46.192810,70.107864 
	C40.162552,70.547966 34.156895,71.332779 28.144308,72.004807 
	C23.690243,72.502632 19.357481,73.807770 15.094673,70.373917 
	C14.016491,69.505394 9.960807,70.987892 8.376790,72.526253 
	C7.151155,73.716560 6.754049,77.184998 7.620625,78.718353 
	C8.555025,80.371727 11.359484,81.702492 13.402718,81.782661 
	C15.337683,81.858582 17.515432,80.376869 19.278225,79.140717 
	C22.018522,77.219070 23.434195,77.682007 24.003983,80.964661 
	C24.309229,82.723251 24.565607,84.509102 25.086441,86.208344 
	C27.847956,95.217941 36.068199,102.316711 34.425877,112.880943 
	C34.409664,112.985222 34.677074,113.108147 34.737152,113.253365 
	C38.329876,121.937592 47.881065,124.819160 56.477337,119.851059 
	C57.694286,119.147736 59.246326,117.946190 60.312336,118.227829 
	C70.099251,120.813530 79.540939,119.503357 88.881996,116.451012 
	C88.898430,109.865746 87.856033,109.123131 81.644897,110.673019 
	C75.096527,112.307045 68.528389,113.133156 62.035820,110.434052 
	C64.409744,97.239624 51.213203,89.156288 39.566566,96.069748 
	C34.237331,90.942505 32.041019,84.485611 30.962610,77.165016 
	C36.728420,76.743538 41.807526,76.221054 46.896030,76.102791 
	C48.227417,76.071854 50.427299,76.980782 50.808640,77.992943 
	C56.093266,92.019348 66.682091,93.577988 79.856453,91.252388 
	C84.394493,99.803970 89.116203,108.349396 93.404205,117.107178 
	C94.175056,118.681580 93.561195,121.276337 92.887657,123.148537 
	C91.169296,127.924950 93.242363,132.797546 98.152092,134.634125 
	C102.390442,136.219559 108.827705,133.676666 109.940140,129.977524 
	C111.726463,124.037537 108.726479,117.591263 103.393219,117.159546 
	C99.736282,116.863510 98.277779,115.184494 98.120255,112.732574 
	C103.568703,107.077820 108.956696,101.442734 113.224121,95.058617 
	C115.877464,91.089195 118.428093,88.052460 122.882362,85.825676 
	C132.008957,81.263084 131.732132,68.363907 123.060448,62.903309 
	C120.961617,61.581669 118.837334,59.287590 118.099525,56.997719 
	C115.324203,48.384182 110.907211,40.893780 104.193092,34.903786 
	C102.965218,33.808350 100.524536,34.072346 98.303612,33.296860 
z"/>
<path fill="#0092FF" opacity="1.000000" stroke="none" 
	d="
M98.643692,33.708820 
	C100.524536,34.072346 102.965218,33.808350 104.193092,34.903786 
	C110.907211,40.893780 115.324203,48.384182 118.099525,56.997719 
	C118.837334,59.287590 120.961617,61.581669 123.060448,62.903309 
	C131.732132,68.363907 132.008957,81.263084 122.882362,85.825676 
	C118.428093,88.052460 115.877464,91.089195 113.224121,95.058617 
	C108.956696,101.442734 103.568703,107.077820 98.120255,112.732574 
	C98.277779,115.184494 99.736282,116.863510 103.393219,117.159546 
	C108.726479,117.591263 111.726463,124.037537 109.940140,129.977524 
	C108.827705,133.676666 102.390442,136.219559 98.152092,134.634125 
	C93.242363,132.797546 91.169296,127.924950 92.887657,123.148537 
	C93.561195,121.276337 94.175056,118.681580 93.404205,117.107178 
	C89.116203,108.349396 84.394493,99.803970 79.856453,91.252388 
	C66.682091,93.577988 56.093266,92.019348 50.808640,77.992943 
	C50.427299,76.980782 48.227417,76.071854 46.896030,76.102791 
	C41.807526,76.221054 36.728420,76.743538 30.962610,77.165016 
	C32.041019,84.485611 34.237331,90.942505 39.566566,96.069748 
	C51.213203,89.156288 64.409744,97.239624 62.035820,110.434052 
	C68.528389,113.133156 75.096527,112.307045 81.644897,110.673019 
	C87.856033,109.123131 88.898430,109.865746 88.881996,116.451012 
	C79.540939,119.503357 70.099251,120.813530 60.312336,118.227829 
	C59.246326,117.946190 57.694286,119.147736 56.477337,119.851059 
	C47.881065,124.819160 38.329876,121.937592 34.737152,113.253365 
	C34.677074,113.108147 34.409664,112.985222 34.425877,112.880943 
	C36.068199,102.316711 27.847956,95.217941 25.086441,86.208344 
	C24.565607,84.509102 24.309229,82.723251 24.003983,80.964661 
	C23.434195,77.682007 22.018522,77.219070 19.278225,79.140717 
	C17.515432,80.376869 15.337683,81.858582 13.402718,81.782661 
	C11.359484,81.702492 8.555025,80.371727 7.620625,78.718353 
	C6.754049,77.184998 7.151155,73.716560 8.376790,72.526253 
	C9.960807,70.987892 14.016491,69.505394 15.094673,70.373917 
	C19.357481,73.807770 23.690243,72.502632 28.144308,72.004807 
	C34.156895,71.332779 40.162552,70.547966 46.192810,70.107864 
	C48.896729,69.910515 49.489925,68.817932 50.164829,66.267311 
	C53.433620,53.913666 60.505192,50.481102 70.657158,49.174423 
	C73.689240,48.784157 76.969551,50.322510 80.286232,51.008274 
	C83.529976,45.614288 86.771751,40.223576 90.846497,33.447735 
	C84.033150,32.214584 77.940628,30.916235 71.781059,30.175730 
	C70.659782,30.040930 68.410805,32.001015 68.129829,33.305744 
	C65.715691,44.515831 54.978077,50.037029 44.436451,45.029854 
	C41.430035,43.601830 39.367805,43.897030 38.029209,46.949657 
	C34.807842,54.295910 31.672646,61.679955 28.190521,69.774414 
	C27.687456,69.774414 25.728207,69.774414 22.354019,69.774414 
	C23.478640,64.343147 23.862017,58.786121 25.852278,53.881104 
	C28.012136,48.558102 31.746788,43.886875 34.616478,38.830269 
	C35.350700,37.536522 35.973911,35.744770 35.691429,34.379803 
	C33.892025,25.684868 37.028214,18.240871 44.548721,14.905629 
	C51.321728,11.901893 59.945038,13.182034 65.260811,20.343102 
	C66.143784,21.532589 68.682503,21.844532 70.488113,21.937063 
	C78.534996,22.349445 86.197884,24.112160 94.810570,27.912533 
	C94.886101,25.928366 95.427544,23.913700 94.930328,22.200478 
	C93.925285,18.737461 95.478355,14.210628 98.595154,12.996243 
	C102.708580,11.393548 107.681984,13.121146 108.802208,16.541845 
	C110.351860,21.273853 108.786293,25.976723 104.552658,26.548685 
	C100.635719,27.077860 99.589241,29.651474 97.648132,32.727852 
	C94.510910,38.024216 91.970932,42.957012 88.871712,47.509056 
	C86.309715,51.272045 85.608940,54.412392 88.701897,58.294342 
	C95.284012,66.555527 94.493401,78.617767 86.723610,85.889633 
	C85.840179,86.716454 84.986732,88.756416 85.403389,89.598709 
	C88.020493,94.889435 91.001358,100.000214 94.582970,106.473732 
	C100.144203,99.580940 105.045372,93.506241 109.810196,87.600548 
	C100.270264,77.262817 100.564987,71.837578 109.843742,62.438374 
	C110.549950,61.723000 110.684509,59.598572 110.154892,58.646309 
	C106.939369,52.864758 103.826698,46.957298 99.907173,41.663895 
	C97.831062,38.860054 96.095726,36.867882 98.643692,33.708820 
M60.554276,58.965752 
	C52.911404,67.640999 53.978363,76.679916 61.313927,82.903625 
	C67.723991,88.342125 74.245255,87.940399 79.786804,84.572044 
	C86.177994,80.687256 88.866066,71.903168 86.182556,65.592628 
	C81.709061,55.072792 73.263420,52.659454 60.554276,58.965752 
M42.536247,31.033031 
	C42.816601,31.965282 43.002968,32.938995 43.392902,33.822903 
	C45.559170,38.733398 50.817165,40.545948 55.667953,38.097828 
	C60.464611,35.677032 62.070133,30.965740 59.691872,26.289921 
	C57.229401,21.448536 51.793392,19.322836 47.529644,22.414970 
	C45.079205,24.192070 43.865753,27.674849 42.536247,31.033031 
M53.950424,111.233185 
	C55.844082,108.222725 55.217407,105.206299 52.631512,103.400307 
	C50.819016,102.134460 47.548828,101.222084 45.808090,102.034378 
	C43.720970,103.008293 41.481720,105.914192 41.340481,108.113930 
	C41.218834,110.008446 43.621410,112.496918 45.492054,113.991837 
	C48.746380,116.592514 51.235100,114.064438 53.950424,111.233185 
M113.237732,69.293228 
	C110.005722,72.164360 108.738167,75.267151 112.299744,78.770233 
	C114.620392,81.052765 118.767593,80.643471 120.734665,77.567978 
	C121.639412,76.153419 122.141174,73.633560 121.487106,72.245773 
	C120.120789,69.346809 117.221275,68.441811 113.237732,69.293228 
z"/>
<path fill="#FFFFFF" opacity="1.000000" stroke="none" 
	d="
M98.473648,33.502838 
	C96.095726,36.867882 97.831062,38.860054 99.907173,41.663895 
	C103.826698,46.957298 106.939369,52.864758 110.154892,58.646309 
	C110.684509,59.598572 110.549950,61.723000 109.843742,62.438374 
	C100.564987,71.837578 100.270264,77.262817 109.810196,87.600548 
	C105.045372,93.506241 100.144203,99.580940 94.582970,106.473732 
	C91.001358,100.000214 88.020493,94.889435 85.403389,89.598709 
	C84.986732,88.756416 85.840179,86.716454 86.723610,85.889633 
	C94.493401,78.617767 95.284012,66.555527 88.701897,58.294342 
	C85.608940,54.412392 86.309715,51.272045 88.871712,47.509056 
	C91.970932,42.957012 94.510910,38.024216 97.604591,33.092590 
	C98.045380,33.051605 98.174500,33.174232 98.473648,33.502838 
z"/>
<path fill="#FFFFFF" opacity="1.000000" stroke="none" 
	d="
M60.823273,58.694420 
	C73.263420,52.659454 81.709061,55.072792 86.182556,65.592628 
	C88.866066,71.903168 86.177994,80.687256 79.786804,84.572044 
	C74.245255,87.940399 67.723991,88.342125 61.313927,82.903625 
	C53.978363,76.679916 52.911404,67.640999 60.823273,58.694420 
z"/>
<path fill="#FFFFFF" opacity="1.000000" stroke="none" 
	d="
M42.315857,30.711416 
	C43.865753,27.674849 45.079205,24.192070 47.529644,22.414970 
	C51.793392,19.322836 57.229401,21.448536 59.691872,26.289921 
	C62.070133,30.965740 60.464611,35.677032 55.667953,38.097828 
	C50.817165,40.545948 45.559170,38.733398 43.392902,33.822903 
	C43.002968,32.938995 42.816601,31.965282 42.315857,30.711416 
z"/>
<path fill="#FFFFFF" opacity="1.000000" stroke="none" 
	d="
M53.761314,111.572502 
	C51.235100,114.064438 48.746380,116.592514 45.492054,113.991837 
	C43.621410,112.496918 41.218834,110.008446 41.340481,108.113930 
	C41.481720,105.914192 43.720970,103.008293 45.808090,102.034378 
	C47.548828,101.222084 50.819016,102.134460 52.631512,103.400307 
	C55.217407,105.206299 55.844082,108.222725 53.761314,111.572502 
z"/>
<path fill="#FFFFFF" opacity="1.000000" stroke="none" 
	d="
M113.618927,69.168739 
	C117.221275,68.441811 120.120789,69.346809 121.487106,72.245773 
	C122.141174,73.633560 121.639412,76.153419 120.734665,77.567978 
	C118.767593,80.643471 114.620392,81.052765 112.299744,78.770233 
	C108.738167,75.267151 110.005722,72.164360 113.618927,69.168739 
z"/>
</svg>