<svg version="1.1" id="Layer_1" xmlns="http://www.w3.org/2000/svg" xmlns:xlink="http://www.w3.org/1999/xlink" x="0px" y="0px"
	 width="100%" viewBox="0 0 1456 1456" enable-background="new 0 0 1456 1456" xml:space="preserve">
<path fill="#000000" opacity="1.000000" stroke="none" 
	d="
M1.000000,514.000000 
	C1.000000,342.666687 1.000000,171.833389 1.000000,1.000069 
	C486.333221,1.000046 971.666443,1.000046 1456.999756,1.000023 
	C1456.999756,486.333130 1456.999756,971.666260 1456.999878,1456.999512 
	C971.666931,1456.999756 486.333923,1456.999756 1.000437,1456.999878 
	C1.000000,1142.833374 1.000000,828.666687 1.000000,514.000000 
M1082.998413,16.494749 
	C1060.106323,30.965683 1047.713989,52.294918 1044.192993,78.582382 
	C1041.990723,95.024223 1046.713135,110.250183 1055.591553,124.486465 
	C1060.984375,133.133484 1063.024780,143.024506 1059.013428,153.221375 
	C1053.988159,165.995316 1046.236694,176.930481 1036.168457,186.139587 
	C1033.159302,188.891983 1029.197510,190.384262 1024.961182,188.020599 
	C1018.382935,184.350311 1011.917908,180.455246 1005.199768,177.061646 
	C981.505188,165.092590 956.627563,156.195404 931.224060,148.598907 
	C902.136108,139.900620 872.773071,132.427200 842.554443,129.102493 
	C824.951233,127.165771 807.241028,126.070091 789.551331,125.100624 
	C779.415161,124.545120 769.221863,125.124977 759.057678,124.969444 
	C745.303589,124.758995 731.544189,124.530563 717.803955,123.925369 
	C709.653442,123.566399 702.115906,121.129478 696.841675,114.289452 
	C693.781677,110.321045 690.913635,106.202499 688.016296,102.111099 
	C677.444397,87.182564 665.570129,73.365685 651.270874,61.937473 
	C637.535522,50.959949 622.832642,41.446171 606.404175,34.708595 
	C585.897217,26.298388 565.040344,19.572729 542.583923,20.062910 
	C526.915588,20.404919 510.902954,19.468941 495.670990,22.381863 
	C460.531616,29.101822 429.442047,45.229362 402.636597,69.009476 
	C386.646484,83.194847 373.795013,100.093567 363.644745,118.894455 
	C346.855835,149.991867 340.005341,183.189423 341.772644,218.571640 
	C342.706451,237.266876 347.092926,255.068893 351.531464,272.987305 
	C354.864502,286.442810 353.386017,298.513214 343.444580,309.254089 
	C334.357635,319.071747 325.648285,329.326355 317.647644,340.041809 
	C305.087006,356.864716 292.847198,373.961121 281.226288,391.443451 
	C265.337189,415.346802 253.285126,441.372711 242.218246,467.742249 
	C231.866043,492.408875 222.533005,517.541809 216.059586,543.574829 
	C212.058594,559.665039 208.241272,575.825684 205.139542,592.106689 
	C202.770004,604.544373 201.372116,617.191223 200.055969,629.798645 
	C198.710999,642.682556 197.838348,655.622620 197.073547,668.556763 
	C196.753128,673.975952 198.165817,675.168335 203.754288,674.965576 
	C219.428360,674.397156 235.108566,673.860901 250.760391,672.892395 
	C256.189789,672.556396 261.594025,671.201477 266.915375,669.920105 
	C271.423218,668.834717 273.488708,665.065369 273.895508,660.915100 
	C274.602539,653.701782 274.625732,646.423218 275.014160,639.176208 
	C275.277954,634.254761 275.258270,629.268738 276.089844,624.436218 
	C278.885284,608.191101 281.544403,591.899902 285.100494,575.813110 
	C291.774139,545.623291 302.612488,516.805115 315.674957,488.842957 
	C328.847412,460.645355 344.341339,433.711334 362.405792,408.384491 
	C371.469269,395.677246 381.512512,383.601105 391.864014,371.904449 
	C398.593445,364.300507 408.286682,362.686829 417.475616,366.117950 
	C430.521454,370.989166 442.997894,377.371155 455.781860,382.960785 
	C479.118652,393.164337 503.515137,399.263947 528.986267,399.833038 
	C541.800171,400.119415 554.801636,399.649231 567.452209,397.749268 
	C584.799133,395.144012 601.416321,389.309021 617.103577,381.352325 
	C642.030945,368.709076 663.248779,351.397247 680.261780,329.167664 
	C690.858582,315.321747 699.300964,300.192047 706.051636,284.087280 
	C714.662903,263.543823 719.008057,241.994110 722.087952,220.065765 
	C723.193237,212.196014 725.956360,204.622208 734.698181,202.263916 
	C740.138123,200.796371 745.962097,200.024109 751.592712,200.124100 
	C770.935547,200.467575 790.298401,200.887344 809.596252,202.152176 
	C823.054016,203.034225 836.577026,204.551346 849.789612,207.192291 
	C874.683533,212.168137 899.424072,218.009201 923.332581,226.765213 
	C941.375610,233.373123 959.410889,240.024460 977.241150,247.176422 
	C982.403198,249.246994 987.097351,252.684631 989.069641,258.740326 
	C991.843811,267.257996 987.942139,274.288971 984.210388,281.132263 
	C979.057739,290.580841 973.184265,299.636566 967.611267,308.855560 
	C956.379028,327.436493 945.101257,345.990051 933.917908,364.600342 
	C923.977966,381.141479 914.143982,397.746307 904.255920,414.318695 
	C896.433594,427.428802 888.879700,440.711609 880.639221,453.553619 
	C877.161682,458.972931 872.103943,464.114014 864.833191,462.785431 
	C856.982849,461.350891 849.383118,458.533234 841.684387,456.283417 
	C822.871399,450.785583 803.842468,445.621918 784.220459,445.227112 
	C761.642090,444.772888 738.942078,443.443787 716.483521,447.945740 
	C696.561096,451.939331 677.132385,457.589722 658.762695,466.162323 
	C639.560913,475.123322 620.734802,485.054810 605.435242,500.156464 
	C592.173279,513.246887 577.974792,525.728149 566.682556,540.397217 
	C548.462402,564.066162 535.079956,590.755249 527.106262,619.732849 
	C522.798767,635.387146 519.420227,651.312866 516.081421,667.212463 
	C513.710205,678.504150 507.334808,686.077209 496.336029,688.673523 
	C487.987091,690.644470 479.259766,691.092957 470.674683,691.960083 
	C462.191498,692.817017 453.667725,693.264771 445.175629,694.043091 
	C431.497009,695.296875 417.833984,696.720886 404.156067,697.982666 
	C395.829559,698.750793 387.475189,699.226257 379.155243,700.053772 
	C366.973022,701.265442 354.820312,702.775574 342.636200,703.965698 
	C333.984833,704.810730 325.285248,705.168091 316.637665,706.044067 
	C301.536530,707.573853 286.463013,709.374817 271.369995,710.987793 
	C258.373260,712.376709 245.375977,713.776917 232.359940,714.963928 
	C216.367386,716.422424 200.358612,717.708923 184.349533,718.977356 
	C178.275726,719.458618 172.079544,719.103516 166.119125,720.152405 
	C155.605728,722.002563 146.101105,719.558594 137.611496,713.873108 
	C130.335236,709.000366 123.838028,702.967285 116.974899,697.474060 
	C101.488716,685.079102 83.552841,681.762573 64.685310,685.347778 
	C47.099987,688.689392 32.616287,698.120972 21.854431,712.686951 
	C11.329548,726.932251 6.896118,743.277893 9.282635,760.511108 
	C11.785858,778.587097 19.305099,794.718323 34.114307,806.679443 
	C50.710461,820.083923 69.376923,824.665649 90.140549,820.367920 
	C110.663963,816.119934 125.472488,803.872009 137.150757,786.853333 
	C142.911896,778.457642 151.025574,772.674866 161.830704,771.992065 
	C167.729218,771.619324 173.729279,771.731628 179.492111,770.626709 
	C186.213577,769.337952 192.344513,770.669739 198.409393,772.996582 
	C199.862625,773.554138 201.139389,775.138611 202.008850,776.551453 
	C205.548019,782.301941 204.933624,788.993530 206.207153,795.277466 
	C209.977325,813.880798 214.090256,832.457886 219.146774,850.747314 
	C227.189835,879.838989 238.166779,907.937500 251.142746,935.169556 
	C258.122528,949.817566 266.106018,964.008484 274.069702,978.161926 
	C288.506927,1003.820557 306.027283,1027.422119 323.530640,1051.017212 
	C331.434113,1061.671509 334.737762,1072.903076 331.504883,1086.474243 
	C328.807220,1097.798584 327.531036,1109.649536 327.233002,1121.308350 
	C326.893097,1134.606079 327.197144,1148.129028 329.267090,1161.230835 
	C332.398529,1181.051880 340.578339,1199.325806 351.128143,1216.365601 
	C360.524231,1231.541992 372.243744,1244.918213 386.451202,1255.689453 
	C396.168152,1263.056274 406.372742,1270.216309 417.336273,1275.404419 
	C435.559875,1284.028198 454.520477,1290.327515 475.250305,1291.361572 
	C489.663086,1292.080688 504.034149,1292.530029 517.965149,1289.717163 
	C544.625610,1284.334106 568.797302,1272.741943 590.393982,1256.078979 
	C600.859192,1248.004639 612.224609,1242.168213 625.778809,1244.125732 
	C641.135559,1246.343750 656.306824,1249.824951 671.645752,1252.192505 
	C688.516602,1254.796631 705.484192,1258.611816 722.413879,1258.633423 
	C764.013977,1258.686646 805.826721,1262.240112 847.149841,1254.020020 
	C860.457214,1251.373047 873.931702,1249.462280 887.113159,1246.309082 
	C911.165344,1240.555420 935.036804,1234.050171 959.024109,1228.019409 
	C967.405762,1225.912109 972.877930,1218.767944 970.905457,1210.971802 
	C967.673584,1198.197510 963.580444,1185.701782 957.023438,1174.148926 
	C950.953857,1163.454590 942.614807,1156.255737 929.554688,1158.133179 
	C921.150146,1159.341431 912.823425,1161.463745 904.646973,1163.819214 
	C874.767395,1172.427490 844.394165,1178.695312 813.496460,1181.807617 
	C796.266968,1183.543213 778.844482,1183.428101 761.503113,1183.957764 
	C753.510864,1184.201782 745.458313,1184.540527 737.514893,1183.869141 
	C722.728943,1182.619995 707.943298,1181.062012 693.270752,1178.873047 
	C681.656250,1177.140015 670.148987,1174.528320 658.725525,1171.763550 
	C654.857544,1170.827393 652.074280,1167.729492 651.994995,1163.140381 
	C651.673889,1144.554443 651.382202,1125.967773 650.964355,1107.384033 
	C650.864868,1102.962402 650.822144,1098.442505 649.897034,1094.152466 
	C644.269287,1068.055176 633.456055,1044.342407 615.657166,1024.277466 
	C599.697388,1006.285706 580.827332,991.907776 559.312317,980.981079 
	C543.224670,972.810730 526.342041,966.840271 508.457550,965.283630 
	C495.997498,964.199158 483.302582,965.423889 470.735077,966.060730 
	C454.888245,966.863586 440.124481,972.050354 425.910278,978.671326 
	C416.004059,983.285645 406.528015,988.815125 396.710419,993.631226 
	C390.880554,996.491089 384.420807,999.001953 378.494751,994.629578 
	C374.140350,991.416687 370.238739,987.234192 367.101807,982.800049 
	C360.222961,973.076172 353.891357,962.960815 347.455383,952.928955 
	C332.918976,930.270691 320.258179,906.509521 310.489288,881.508667 
	C301.288391,857.961426 293.725250,833.729309 286.441528,809.497925 
	C283.069122,798.278564 281.570740,786.404419 280.182709,774.713257 
	C279.307281,767.339355 283.804810,762.110229 291.192719,761.104309 
	C306.044342,759.082336 320.971863,757.603821 335.882050,756.033813 
	C341.111267,755.483215 346.392059,755.437927 351.630951,754.960632 
	C365.475586,753.699280 379.308350,752.308655 393.149445,751.007507 
	C400.813446,750.287109 408.497711,749.763794 416.149445,748.935669 
	C427.329681,747.725647 438.484467,746.282349 449.658630,745.013977 
	C456.962982,744.184814 464.283417,743.497803 471.595032,742.731628 
	C480.191345,741.830811 488.817963,739.951477 497.373444,740.236511 
	C509.125549,740.627991 518.237183,746.413147 523.219727,757.640198 
	C531.471008,776.232727 539.242310,795.061951 548.177979,813.320618 
	C557.427856,832.221313 570.324402,848.817749 584.750366,864.050598 
	C592.900085,872.656250 601.573792,880.952942 610.958374,888.154968 
	C622.965271,897.369385 635.378052,906.336243 648.603088,913.616577 
	C668.938599,924.811157 690.849548,932.088440 713.878235,936.181458 
	C730.388794,939.116028 746.897644,941.185974 763.631226,940.908142 
	C771.809082,940.772400 780.010437,939.973999 788.130066,938.924988 
	C798.566589,937.576782 808.950500,935.783569 819.322876,933.984802 
	C832.037231,931.779846 844.044373,926.228088 857.408386,926.850037 
	C865.544556,927.228638 871.880737,930.369324 875.868103,936.945068 
	C883.613586,949.718323 890.996521,962.739563 897.917908,975.977966 
	C909.324890,997.795776 920.139343,1019.922424 931.398804,1041.818481 
	C945.009155,1068.286255 958.773621,1094.675049 972.567322,1121.047974 
	C980.616333,1136.437012 988.876465,1151.715698 996.999146,1167.066528 
	C1009.859985,1191.371826 1022.797729,1215.637329 1035.489868,1240.030518 
	C1045.524414,1259.316040 1044.154541,1278.597290 1033.377441,1296.951782 
	C1022.414612,1315.622314 1015.826477,1334.733643 1018.758240,1356.978027 
	C1021.398193,1377.007935 1029.692017,1393.967651 1042.512207,1408.891235 
	C1059.881348,1429.110352 1081.838257,1441.906616 1108.486206,1444.790283 
	C1127.515625,1446.849731 1146.200928,1443.999268 1163.795898,1435.690063 
	C1176.281738,1429.793579 1185.639404,1420.174194 1195.097046,1410.511108 
	C1209.749756,1395.539917 1217.675659,1377.235474 1219.684814,1356.933838 
	C1221.240112,1341.216187 1221.128418,1325.090088 1214.969727,1309.878540 
	C1206.833496,1289.782837 1195.563599,1271.808716 1177.031250,1259.869995 
	C1169.074829,1254.744263 1159.969604,1250.645386 1150.817017,1248.338013 
	C1140.944946,1245.849243 1130.425781,1245.659180 1120.154419,1245.094116 
	C1108.731079,1244.465698 1099.651855,1239.215454 1092.060425,1231.406006 
	C1081.587769,1220.632812 1074.544434,1207.419556 1068.130371,1194.020630 
	C1061.938110,1181.084839 1066.047363,1175.869751 1072.853394,1169.967163 
	C1081.262207,1162.674683 1090.586670,1156.391846 1099.786499,1150.066895 
	C1120.961792,1135.508667 1140.620239,1119.020508 1158.959351,1101.175659 
	C1175.125854,1085.445068 1190.152710,1068.473022 1204.884033,1051.361328 
	C1215.235229,1039.337280 1224.937134,1026.617188 1233.698853,1013.392944 
	C1248.252563,991.426453 1261.727295,968.745850 1272.684326,944.702942 
	C1277.667725,933.768005 1281.874023,922.460754 1287.234619,911.722595 
	C1290.515137,905.151184 1294.224731,897.977539 1299.733887,893.557556 
	C1305.606079,888.846436 1313.594727,886.204590 1321.071411,884.184937 
	C1335.034546,880.413086 1349.079468,876.982666 1362.038208,870.414062 
	C1378.921021,861.856323 1394.521606,851.392334 1406.703491,836.666382 
	C1413.511841,828.435913 1420.505127,820.131042 1425.827026,810.940125 
	C1442.982788,781.311951 1448.873535,749.237488 1445.088501,715.188904 
	C1442.939941,695.861694 1437.313599,677.784912 1427.971191,660.820129 
	C1416.645020,640.253357 1401.007324,623.428101 1381.262451,611.005615 
	C1367.845459,602.564209 1353.250732,595.990112 1339.154663,588.634705 
	C1329.233276,583.457764 1322.286621,575.844482 1318.955200,565.000916 
	C1312.694946,544.623962 1306.874023,524.086853 1299.808594,503.989716 
	C1293.228027,485.272095 1286.097290,466.653107 1277.727173,448.680817 
	C1263.635620,418.423981 1246.841675,389.663788 1227.291748,362.478546 
	C1211.027466,339.862305 1193.346069,318.493805 1173.925659,298.614899 
	C1160.395508,284.765472 1146.060059,271.694244 1131.890015,258.483826 
	C1127.263794,254.170929 1122.046997,250.486969 1117.059570,246.567291 
	C1112.814331,243.230896 1108.194946,243.067368 1104.173096,246.467743 
	C1100.136597,249.880493 1095.833374,253.491425 1093.184326,257.932434 
	C1086.110596,269.791840 1079.526245,281.977448 1073.402588,294.357513 
	C1069.266113,302.720093 1069.930420,304.801971 1076.964722,311.365265 
	C1086.216553,319.997650 1096.140747,327.930420 1105.131714,336.815918 
	C1115.586548,347.148132 1125.850708,357.761566 1135.278198,369.022614 
	C1147.467407,383.582336 1159.265625,398.532959 1170.300781,413.980682 
	C1188.587524,439.579651 1203.148926,467.343018 1215.662720,496.192688 
	C1225.692871,519.316467 1234.238037,542.965820 1240.607178,567.351074 
	C1242.230469,573.565857 1244.209961,580.509460 1239.750610,586.218445 
	C1236.493774,590.387817 1232.249756,594.151367 1227.719604,596.897827 
	C1207.911865,608.906677 1189.570312,622.523193 1174.784790,640.626343 
	C1163.437012,654.520325 1154.901123,669.903503 1149.018311,686.777344 
	C1144.784058,698.922974 1143.020142,711.485474 1141.719116,724.312317 
	C1140.270264,738.595703 1141.741943,752.379211 1144.646484,766.158020 
	C1148.851807,786.107544 1157.655029,804.093262 1169.321289,820.661926 
	C1176.991455,831.555237 1185.824219,841.431641 1196.246948,849.902100 
	C1202.290771,854.813965 1207.845947,860.365479 1213.326660,865.919495 
	C1217.408936,870.056213 1219.944824,875.199707 1217.921509,881.098572 
	C1215.018921,889.560364 1212.315918,898.223938 1208.198242,906.106934 
	C1200.312622,921.203186 1191.608521,935.878967 1183.033569,950.606567 
	C1165.075073,981.449951 1142.359131,1008.659058 1117.923584,1034.453491 
	C1100.133911,1053.232422 1080.592651,1070.164062 1060.246826,1086.114746 
	C1053.284424,1091.573120 1045.882568,1096.559570 1038.282715,1101.093018 
	C1029.217529,1106.500488 1024.526367,1105.133179 1018.770203,1096.282349 
	C1015.436829,1091.156982 1012.110413,1085.992065 1009.267761,1080.588989 
	C999.531799,1062.083374 990.009277,1043.465210 980.408691,1024.888428 
	C970.067200,1004.877991 959.791748,984.833069 949.371338,964.863831 
	C940.147644,947.188110 930.656067,929.651733 921.497498,911.942749 
	C916.873474,903.001953 915.744751,894.136963 923.508240,885.929199 
	C930.868225,878.147949 938.097473,870.237854 945.214783,862.233765 
	C951.523987,855.138245 958.090881,848.194580 963.680481,840.552307 
	C976.623535,822.856445 987.686707,803.993286 995.788391,783.554199 
	C1006.307861,757.015503 1013.195923,729.773743 1013.155396,700.884155 
	C1013.125610,679.626892 1013.049500,658.424622 1007.827148,637.724487 
	C1000.548401,608.873047 988.856689,581.902527 972.541870,556.879639 
	C961.329956,539.683350 947.165955,525.017090 934.029053,509.451508 
	C928.877075,503.347137 923.749390,496.675720 925.214905,488.180328 
	C926.226318,482.317047 928.583862,476.422760 931.514954,471.202118 
	C941.113342,454.106476 951.227295,437.299713 961.184448,420.406281 
	C972.289551,401.565155 983.409668,382.732727 994.578491,363.929352 
	C1007.796936,341.675201 1021.147766,319.499359 1034.303467,297.208344 
	C1045.089111,278.933289 1055.561768,260.473328 1066.377197,242.216171 
	C1077.444092,223.534348 1088.837646,205.046158 1099.930176,186.379395 
	C1105.005127,177.839157 1112.121216,172.172989 1121.787598,170.039108 
	C1129.035156,168.439224 1136.372803,167.219086 1143.701904,166.022842 
	C1169.506714,161.810959 1187.599609,147.017761 1199.975708,124.689743 
	C1209.091675,108.243263 1209.280640,90.429649 1207.022095,72.335419 
	C1204.331665,50.782856 1193.401733,33.930859 1176.407349,21.288031 
	C1159.611084,8.792681 1140.584229,2.778647 1119.212402,4.880205 
	C1106.443726,6.135784 1094.707642,9.942932 1082.998413,16.494749 
z"/>
<path fill="#FFFFFF" opacity="1.000000" stroke="none" 
	d="
M1083.270996,16.233662 
	C1094.707642,9.942932 1106.443726,6.135784 1119.212402,4.880205 
	C1140.584229,2.778647 1159.611084,8.792681 1176.407349,21.288031 
	C1193.401733,33.930859 1204.331665,50.782856 1207.022095,72.335419 
	C1209.280640,90.429649 1209.091675,108.243263 1199.975708,124.689743 
	C1187.599609,147.017761 1169.506714,161.810959 1143.701904,166.022842 
	C1136.372803,167.219086 1129.035156,168.439224 1121.787598,170.039108 
	C1112.121216,172.172989 1105.005127,177.839157 1099.930176,186.379395 
	C1088.837646,205.046158 1077.444092,223.534348 1066.377197,242.216171 
	C1055.561768,260.473328 1045.089111,278.933289 1034.303467,297.208344 
	C1021.147766,319.499359 1007.796936,341.675201 994.578491,363.929352 
	C983.409668,382.732727 972.289551,401.565155 961.184448,420.406281 
	C951.227295,437.299713 941.113342,454.106476 931.514954,471.202118 
	C928.583862,476.422760 926.226318,482.317047 925.214905,488.180328 
	C923.749390,496.675720 928.877075,503.347137 934.029053,509.451508 
	C947.165955,525.017090 961.329956,539.683350 972.541870,556.879639 
	C988.856689,581.902527 1000.548401,608.873047 1007.827148,637.724487 
	C1013.049500,658.424622 1013.125610,679.626892 1013.155396,700.884155 
	C1013.195923,729.773743 1006.307861,757.015503 995.788391,783.554199 
	C987.686707,803.993286 976.623535,822.856445 963.680481,840.552307 
	C958.090881,848.194580 951.523987,855.138245 945.214783,862.233765 
	C938.097473,870.237854 930.868225,878.147949 923.508240,885.929199 
	C915.744751,894.136963 916.873474,903.001953 921.497498,911.942749 
	C930.656067,929.651733 940.147644,947.188110 949.371338,964.863831 
	C959.791748,984.833069 970.067200,1004.877991 980.408691,1024.888428 
	C990.009277,1043.465210 999.531799,1062.083374 1009.267761,1080.588989 
	C1012.110413,1085.992065 1015.436829,1091.156982 1018.770203,1096.282349 
	C1024.526367,1105.133179 1029.217529,1106.500488 1038.282715,1101.093018 
	C1045.882568,1096.559570 1053.284424,1091.573120 1060.246826,1086.114746 
	C1080.592651,1070.164062 1100.133911,1053.232422 1117.923584,1034.453491 
	C1142.359131,1008.659058 1165.075073,981.449951 1183.033569,950.606567 
	C1191.608521,935.878967 1200.312622,921.203186 1208.198242,906.106934 
	C1212.315918,898.223938 1215.018921,889.560364 1217.921509,881.098572 
	C1219.944824,875.199707 1217.408936,870.056213 1213.326660,865.919495 
	C1207.845947,860.365479 1202.290771,854.813965 1196.246948,849.902100 
	C1185.824219,841.431641 1176.991455,831.555237 1169.321289,820.661926 
	C1157.655029,804.093262 1148.851807,786.107544 1144.646484,766.158020 
	C1141.741943,752.379211 1140.270264,738.595703 1141.719116,724.312317 
	C1143.020142,711.485474 1144.784058,698.922974 1149.018311,686.777344 
	C1154.901123,669.903503 1163.437012,654.520325 1174.784790,640.626343 
	C1189.570312,622.523193 1207.911865,608.906677 1227.719604,596.897827 
	C1232.249756,594.151367 1236.493774,590.387817 1239.750610,586.218445 
	C1244.209961,580.509460 1242.230469,573.565857 1240.607178,567.351074 
	C1234.238037,542.965820 1225.692871,519.316467 1215.662720,496.192688 
	C1203.148926,467.343018 1188.587524,439.579651 1170.300781,413.980682 
	C1159.265625,398.532959 1147.467407,383.582336 1135.278198,369.022614 
	C1125.850708,357.761566 1115.586548,347.148132 1105.131714,336.815918 
	C1096.140747,327.930420 1086.216553,319.997650 1076.964722,311.365265 
	C1069.930420,304.801971 1069.266113,302.720093 1073.402588,294.357513 
	C1079.526245,281.977448 1086.110596,269.791840 1093.184326,257.932434 
	C1095.833374,253.491425 1100.136597,249.880493 1104.173096,246.467743 
	C1108.194946,243.067368 1112.814331,243.230896 1117.059570,246.567291 
	C1122.046997,250.486969 1127.263794,254.170929 1131.890015,258.483826 
	C1146.060059,271.694244 1160.395508,284.765472 1173.925659,298.614899 
	C1193.346069,318.493805 1211.027466,339.862305 1227.291748,362.478546 
	C1246.841675,389.663788 1263.635620,418.423981 1277.727173,448.680817 
	C1286.097290,466.653107 1293.228027,485.272095 1299.808594,503.989716 
	C1306.874023,524.086853 1312.694946,544.623962 1318.955200,565.000916 
	C1322.286621,575.844482 1329.233276,583.457764 1339.154663,588.634705 
	C1353.250732,595.990112 1367.845459,602.564209 1381.262451,611.005615 
	C1401.007324,623.428101 1416.645020,640.253357 1427.971191,660.820129 
	C1437.313599,677.784912 1442.939941,695.861694 1445.088501,715.188904 
	C1448.873535,749.237488 1442.982788,781.311951 1425.827026,810.940125 
	C1420.505127,820.131042 1413.511841,828.435913 1406.703491,836.666382 
	C1394.521606,851.392334 1378.921021,861.856323 1362.038208,870.414062 
	C1349.079468,876.982666 1335.034546,880.413086 1321.071411,884.184937 
	C1313.594727,886.204590 1305.606079,888.846436 1299.733887,893.557556 
	C1294.224731,897.977539 1290.515137,905.151184 1287.234619,911.722595 
	C1281.874023,922.460754 1277.667725,933.768005 1272.684326,944.702942 
	C1261.727295,968.745850 1248.252563,991.426453 1233.698853,1013.392944 
	C1224.937134,1026.617188 1215.235229,1039.337280 1204.884033,1051.361328 
	C1190.152710,1068.473022 1175.125854,1085.445068 1158.959351,1101.175659 
	C1140.620239,1119.020508 1120.961792,1135.508667 1099.786499,1150.066895 
	C1090.586670,1156.391846 1081.262207,1162.674683 1072.853394,1169.967163 
	C1066.047363,1175.869751 1061.938110,1181.084839 1068.130371,1194.020630 
	C1074.544434,1207.419556 1081.587769,1220.632812 1092.060425,1231.406006 
	C1099.651855,1239.215454 1108.731079,1244.465698 1120.154419,1245.094116 
	C1130.425781,1245.659180 1140.944946,1245.849243 1150.817017,1248.338013 
	C1159.969604,1250.645386 1169.074829,1254.744263 1177.031250,1259.869995 
	C1195.563599,1271.808716 1206.833496,1289.782837 1214.969727,1309.878540 
	C1221.128418,1325.090088 1221.240112,1341.216187 1219.684814,1356.933838 
	C1217.675659,1377.235474 1209.749756,1395.539917 1195.097046,1410.511108 
	C1185.639404,1420.174194 1176.281738,1429.793579 1163.795898,1435.690063 
	C1146.200928,1443.999268 1127.515625,1446.849731 1108.486206,1444.790283 
	C1081.838257,1441.906616 1059.881348,1429.110352 1042.512207,1408.891235 
	C1029.692017,1393.967651 1021.398193,1377.007935 1018.758240,1356.978027 
	C1015.826477,1334.733643 1022.414612,1315.622314 1033.377441,1296.951782 
	C1044.154541,1278.597290 1045.524414,1259.316040 1035.489868,1240.030518 
	C1022.797729,1215.637329 1009.859985,1191.371826 996.999146,1167.066528 
	C988.876465,1151.715698 980.616333,1136.437012 972.567322,1121.047974 
	C958.773621,1094.675049 945.009155,1068.286255 931.398804,1041.818481 
	C920.139343,1019.922424 909.324890,997.795776 897.917908,975.977966 
	C890.996521,962.739563 883.613586,949.718323 875.868103,936.945068 
	C871.880737,930.369324 865.544556,927.228638 857.408386,926.850037 
	C844.044373,926.228088 832.037231,931.779846 819.322876,933.984802 
	C808.950500,935.783569 798.566589,937.576782 788.130066,938.924988 
	C780.010437,939.973999 771.809082,940.772400 763.631226,940.908142 
	C746.897644,941.185974 730.388794,939.116028 713.878235,936.181458 
	C690.849548,932.088440 668.938599,924.811157 648.603088,913.616577 
	C635.378052,906.336243 622.965271,897.369385 610.958374,888.154968 
	C601.573792,880.952942 592.900085,872.656250 584.750366,864.050598 
	C570.324402,848.817749 557.427856,832.221313 548.177979,813.320618 
	C539.242310,795.061951 531.471008,776.232727 523.219727,757.640198 
	C518.237183,746.413147 509.125549,740.627991 497.373444,740.236511 
	C488.817963,739.951477 480.191345,741.830811 471.595032,742.731628 
	C464.283417,743.497803 456.962982,744.184814 449.658630,745.013977 
	C438.484467,746.282349 427.329681,747.725647 416.149445,748.935669 
	C408.497711,749.763794 400.813446,750.287109 393.149445,751.007507 
	C379.308350,752.308655 365.475586,753.699280 351.630951,754.960632 
	C346.392059,755.437927 341.111267,755.483215 335.882050,756.033813 
	C320.971863,757.603821 306.044342,759.082336 291.192719,761.104309 
	C283.804810,762.110229 279.307281,767.339355 280.182709,774.713257 
	C281.570740,786.404419 283.069122,798.278564 286.441528,809.497925 
	C293.725250,833.729309 301.288391,857.961426 310.489288,881.508667 
	C320.258179,906.509521 332.918976,930.270691 347.455383,952.928955 
	C353.891357,962.960815 360.222961,973.076172 367.101807,982.800049 
	C370.238739,987.234192 374.140350,991.416687 378.494751,994.629578 
	C384.420807,999.001953 390.880554,996.491089 396.710419,993.631226 
	C406.528015,988.815125 416.004059,983.285645 425.910278,978.671326 
	C440.124481,972.050354 454.888245,966.863586 470.735077,966.060730 
	C483.302582,965.423889 495.997498,964.199158 508.457550,965.283630 
	C526.342041,966.840271 543.224670,972.810730 559.312317,980.981079 
	C580.827332,991.907776 599.697388,1006.285706 615.657166,1024.277466 
	C633.456055,1044.342407 644.269287,1068.055176 649.897034,1094.152466 
	C650.822144,1098.442505 650.864868,1102.962402 650.964355,1107.384033 
	C651.382202,1125.967773 651.673889,1144.554443 651.994995,1163.140381 
	C652.074280,1167.729492 654.857544,1170.827393 658.725525,1171.763550 
	C670.148987,1174.528320 681.656250,1177.140015 693.270752,1178.873047 
	C707.943298,1181.062012 722.728943,1182.619995 737.514893,1183.869141 
	C745.458313,1184.540527 753.510864,1184.201782 761.503113,1183.957764 
	C778.844482,1183.428101 796.266968,1183.543213 813.496460,1181.807617 
	C844.394165,1178.695312 874.767395,1172.427490 904.646973,1163.819214 
	C912.823425,1161.463745 921.150146,1159.341431 929.554688,1158.133179 
	C942.614807,1156.255737 950.953857,1163.454590 957.023438,1174.148926 
	C963.580444,1185.701782 967.673584,1198.197510 970.905457,1210.971802 
	C972.877930,1218.767944 967.405762,1225.912109 959.024109,1228.019409 
	C935.036804,1234.050171 911.165344,1240.555420 887.113159,1246.309082 
	C873.931702,1249.462280 860.457214,1251.373047 847.149841,1254.020020 
	C805.826721,1262.240112 764.013977,1258.686646 722.413879,1258.633423 
	C705.484192,1258.611816 688.516602,1254.796631 671.645752,1252.192505 
	C656.306824,1249.824951 641.135559,1246.343750 625.778809,1244.125732 
	C612.224609,1242.168213 600.859192,1248.004639 590.393982,1256.078979 
	C568.797302,1272.741943 544.625610,1284.334106 517.965149,1289.717163 
	C504.034149,1292.530029 489.663086,1292.080688 475.250305,1291.361572 
	C454.520477,1290.327515 435.559875,1284.028198 417.336273,1275.404419 
	C406.372742,1270.216309 396.168152,1263.056274 386.451202,1255.689453 
	C372.243744,1244.918213 360.524231,1231.541992 351.128143,1216.365601 
	C340.578339,1199.325806 332.398529,1181.051880 329.267090,1161.230835 
	C327.197144,1148.129028 326.893097,1134.606079 327.233002,1121.308350 
	C327.531036,1109.649536 328.807220,1097.798584 331.504883,1086.474243 
	C334.737762,1072.903076 331.434113,1061.671509 323.530640,1051.017212 
	C306.027283,1027.422119 288.506927,1003.820557 274.069702,978.161926 
	C266.106018,964.008484 258.122528,949.817566 251.142746,935.169556 
	C238.166779,907.937500 227.189835,879.838989 219.146774,850.747314 
	C214.090256,832.457886 209.977325,813.880798 206.207153,795.277466 
	C204.933624,788.993530 205.548019,782.301941 202.008850,776.551453 
	C201.139389,775.138611 199.862625,773.554138 198.409393,772.996582 
	C192.344513,770.669739 186.213577,769.337952 179.492111,770.626709 
	C173.729279,771.731628 167.729218,771.619324 161.830704,771.992065 
	C151.025574,772.674866 142.911896,778.457642 137.150757,786.853333 
	C125.472488,803.872009 110.663963,816.119934 90.140549,820.367920 
	C69.376923,824.665649 50.710461,820.083923 34.114307,806.679443 
	C19.305099,794.718323 11.785858,778.587097 9.282635,760.511108 
	C6.896118,743.277893 11.329548,726.932251 21.854431,712.686951 
	C32.616287,698.120972 47.099987,688.689392 64.685310,685.347778 
	C83.552841,681.762573 101.488716,685.079102 116.974899,697.474060 
	C123.838028,702.967285 130.335236,709.000366 137.611496,713.873108 
	C146.101105,719.558594 155.605728,722.002563 166.119125,720.152405 
	C172.079544,719.103516 178.275726,719.458618 184.349533,718.977356 
	C200.358612,717.708923 216.367386,716.422424 232.359940,714.963928 
	C245.375977,713.776917 258.373260,712.376709 271.369995,710.987793 
	C286.463013,709.374817 301.536530,707.573853 316.637665,706.044067 
	C325.285248,705.168091 333.984833,704.810730 342.636200,703.965698 
	C354.820312,702.775574 366.973022,701.265442 379.155243,700.053772 
	C387.475189,699.226257 395.829559,698.750793 404.156067,697.982666 
	C417.833984,696.720886 431.497009,695.296875 445.175629,694.043091 
	C453.667725,693.264771 462.191498,692.817017 470.674683,691.960083 
	C479.259766,691.092957 487.987091,690.644470 496.336029,688.673523 
	C507.334808,686.077209 513.710205,678.504150 516.081421,667.212463 
	C519.420227,651.312866 522.798767,635.387146 527.106262,619.732849 
	C535.079956,590.755249 548.462402,564.066162 566.682556,540.397217 
	C577.974792,525.728149 592.173279,513.246887 605.435242,500.156464 
	C620.734802,485.054810 639.560913,475.123322 658.762695,466.162323 
	C677.132385,457.589722 696.561096,451.939331 716.483521,447.945740 
	C738.942078,443.443787 761.642090,444.772888 784.220459,445.227112 
	C803.842468,445.621918 822.871399,450.785583 841.684387,456.283417 
	C849.383118,458.533234 856.982849,461.350891 864.833191,462.785431 
	C872.103943,464.114014 877.161682,458.972931 880.639221,453.553619 
	C888.879700,440.711609 896.433594,427.428802 904.255920,414.318695 
	C914.143982,397.746307 923.977966,381.141479 933.917908,364.600342 
	C945.101257,345.990051 956.379028,327.436493 967.611267,308.855560 
	C973.184265,299.636566 979.057739,290.580841 984.210388,281.132263 
	C987.942139,274.288971 991.843811,267.257996 989.069641,258.740326 
	C987.097351,252.684631 982.403198,249.246994 977.241150,247.176422 
	C959.410889,240.024460 941.375610,233.373123 923.332581,226.765213 
	C899.424072,218.009201 874.683533,212.168137 849.789612,207.192291 
	C836.577026,204.551346 823.054016,203.034225 809.596252,202.152176 
	C790.298401,200.887344 770.935547,200.467575 751.592712,200.124100 
	C745.962097,200.024109 740.138123,200.796371 734.698181,202.263916 
	C725.956360,204.622208 723.193237,212.196014 722.087952,220.065765 
	C719.008057,241.994110 714.662903,263.543823 706.051636,284.087280 
	C699.300964,300.192047 690.858582,315.321747 680.261780,329.167664 
	C663.248779,351.397247 642.030945,368.709076 617.103577,381.352325 
	C601.416321,389.309021 584.799133,395.144012 567.452209,397.749268 
	C554.801636,399.649231 541.800171,400.119415 528.986267,399.833038 
	C503.515137,399.263947 479.118652,393.164337 455.781860,382.960785 
	C442.997894,377.371155 430.521454,370.989166 417.475616,366.117950 
	C408.286682,362.686829 398.593445,364.300507 391.864014,371.904449 
	C381.512512,383.601105 371.469269,395.677246 362.405792,408.384491 
	C344.341339,433.711334 328.847412,460.645355 315.674957,488.842957 
	C302.612488,516.805115 291.774139,545.623291 285.100494,575.813110 
	C281.544403,591.899902 278.885284,608.191101 276.089844,624.436218 
	C275.258270,629.268738 275.277954,634.254761 275.014160,639.176208 
	C274.625732,646.423218 274.602539,653.701782 273.895508,660.915100 
	C273.488708,665.065369 271.423218,668.834717 266.915375,669.920105 
	C261.594025,671.201477 256.189789,672.556396 250.760391,672.892395 
	C235.108566,673.860901 219.428360,674.397156 203.754288,674.965576 
	C198.165817,675.168335 196.753128,673.975952 197.073547,668.556763 
	C197.838348,655.622620 198.710999,642.682556 200.055969,629.798645 
	C201.372116,617.191223 202.770004,604.544373 205.139542,592.106689 
	C208.241272,575.825684 212.058594,559.665039 216.059586,543.574829 
	C222.533005,517.541809 231.866043,492.408875 242.218246,467.742249 
	C253.285126,441.372711 265.337189,415.346802 281.226288,391.443451 
	C292.847198,373.961121 305.087006,356.864716 317.647644,340.041809 
	C325.648285,329.326355 334.357635,319.071747 343.444580,309.254089 
	C353.386017,298.513214 354.864502,286.442810 351.531464,272.987305 
	C347.092926,255.068893 342.706451,237.266876 341.772644,218.571640 
	C340.005341,183.189423 346.855835,149.991867 363.644745,118.894455 
	C373.795013,100.093567 386.646484,83.194847 402.636597,69.009476 
	C429.442047,45.229362 460.531616,29.101822 495.670990,22.381863 
	C510.902954,19.468941 526.915588,20.404919 542.583923,20.062910 
	C565.040344,19.572729 585.897217,26.298388 606.404175,34.708595 
	C622.832642,41.446171 637.535522,50.959949 651.270874,61.937473 
	C665.570129,73.365685 677.444397,87.182564 688.016296,102.111099 
	C690.913635,106.202499 693.781677,110.321045 696.841675,114.289452 
	C702.115906,121.129478 709.653442,123.566399 717.803955,123.925369 
	C731.544189,124.530563 745.303589,124.758995 759.057678,124.969444 
	C769.221863,125.124977 779.415161,124.545120 789.551331,125.100624 
	C807.241028,126.070091 824.951233,127.165771 842.554443,129.102493 
	C872.773071,132.427200 902.136108,139.900620 931.224060,148.598907 
	C956.627563,156.195404 981.505188,165.092590 1005.199768,177.061646 
	C1011.917908,180.455246 1018.382935,184.350311 1024.961182,188.020599 
	C1029.197510,190.384262 1033.159302,188.891983 1036.168457,186.139587 
	C1046.236694,176.930481 1053.988159,165.995316 1059.013428,153.221375 
	C1063.024780,143.024506 1060.984375,133.133484 1055.591553,124.486465 
	C1046.713135,110.250183 1041.990723,95.024223 1044.192993,78.582382 
	C1047.713989,52.294918 1060.106323,30.965683 1083.270996,16.233662 
M684.048950,869.564819 
	C689.103455,871.593079 694.098389,873.788025 699.223450,875.618896 
	C715.859131,881.561951 732.932312,885.776978 750.590759,886.900208 
	C759.555969,887.470459 768.597107,887.258118 777.585693,886.918274 
	C784.762451,886.646851 792.049561,886.307983 799.047302,884.847412 
	C820.337524,880.403503 840.648743,873.300781 859.877747,862.788696 
	C880.715393,851.397095 897.051880,834.927856 913.204956,818.148010 
	C917.577576,813.605652 921.819702,808.631348 924.833313,803.147217 
	C932.394348,789.387512 940.046143,775.567993 946.077026,761.111511 
	C950.922119,749.497437 954.682556,737.112488 956.664307,724.708557 
	C958.809082,711.284607 958.539856,697.447998 958.942810,683.780151 
	C959.358337,669.686157 957.032166,655.982483 953.209656,642.354553 
	C942.669617,604.777466 923.707397,572.638062 894.295776,546.670349 
	C877.404297,531.756897 858.806580,519.747559 838.087463,511.040314 
	C816.820618,502.102905 794.495483,497.826874 771.515076,497.085938 
	C764.616455,496.863464 757.647827,497.328125 750.777100,498.079773 
	C740.613281,499.191742 730.299988,499.994812 720.418579,502.425964 
	C694.334106,508.843475 669.873352,519.229065 647.926086,535.011230 
	C633.181152,545.614258 620.103943,558.099854 609.271912,572.576660 
	C595.224060,591.351318 584.979492,612.288757 578.093567,634.725464 
	C572.297607,653.610840 569.086609,673.009399 569.108887,692.789612 
	C569.118103,700.956299 570.320801,709.122559 571.001282,717.287354 
	C572.528870,735.614563 577.736633,753.022217 585.056824,769.736084 
	C596.908386,796.796570 613.931519,820.077271 636.615906,839.267883 
	C650.923340,851.371582 666.523376,861.198425 684.048950,869.564819 
M643.002930,187.425674 
	C642.931335,186.440399 643.038330,185.401688 642.761780,184.477783 
	C637.785950,167.855606 631.265259,152.145554 619.526001,138.815353 
	C610.040588,128.044403 599.903625,118.355797 587.147461,111.594643 
	C573.202942,104.203659 558.873718,98.088051 542.718689,98.013161 
	C531.061218,97.959122 519.111816,96.429306 507.811951,98.454918 
	C489.827271,101.678848 473.381348,109.320633 458.996368,121.306564 
	C442.835327,134.772354 431.437561,151.206223 423.910553,170.724747 
	C418.233185,185.446945 417.186432,200.666870 418.137512,216.069977 
	C418.663818,224.593994 419.793182,233.247406 422.027863,241.468140 
	C428.795105,266.363312 443.005585,286.513855 463.592621,301.926178 
	C473.903046,309.644989 485.284393,315.522186 497.854462,319.107147 
	C512.308105,323.229279 526.785034,324.479462 541.799866,323.214172 
	C552.088806,322.347168 561.933899,320.635681 571.585144,317.037415 
	C599.450867,306.648315 619.967102,287.995514 633.977112,261.988129 
	C640.234619,250.372040 643.526245,237.904709 645.147095,224.775177 
	C646.676697,212.384903 646.096130,200.320892 643.002930,187.425674 
M402.999786,1139.547119 
	C404.414703,1152.022949 408.291138,1163.603027 414.765869,1174.438354 
	C423.883606,1189.697021 436.503052,1200.675415 452.531342,1208.312744 
	C465.710785,1214.592773 479.360840,1216.572266 493.753510,1216.092163 
	C505.848145,1215.688599 517.070801,1212.140381 527.460205,1206.651978 
	C542.544250,1198.683350 554.484131,1186.967773 563.282898,1172.219116 
	C569.592896,1161.642090 574.741577,1150.402588 575.785950,1138.150513 
	C576.966003,1124.307129 575.784546,1110.644409 570.232666,1097.311279 
	C559.491943,1071.516846 541.567932,1053.648682 515.155273,1044.737183 
	C501.984161,1040.293335 488.249023,1041.212769 474.686707,1043.021484 
	C450.401428,1046.260376 431.940887,1059.461670 417.448975,1078.329346 
	C408.610504,1089.836548 403.680084,1103.458374 402.179810,1117.905273 
	C401.472900,1124.712402 402.665009,1131.716553 402.999786,1139.547119 
M1312.128174,808.973328 
	C1318.241089,806.602783 1324.702637,804.865356 1330.394531,801.730408 
	C1342.397583,795.119507 1352.476929,786.164673 1359.387573,774.095642 
	C1368.860474,757.551636 1373.435425,739.789978 1369.815308,720.894287 
	C1366.121460,701.612305 1356.224243,685.845886 1340.377808,673.756531 
	C1321.287720,659.192566 1299.631348,654.940002 1276.847778,659.399780 
	C1258.110229,663.067627 1242.782471,673.713440 1231.715210,689.774231 
	C1218.322388,709.210083 1214.614258,730.522522 1220.074463,753.279724 
	C1224.044678,769.827454 1232.962891,783.391296 1246.442627,794.050171 
	C1260.103394,804.852173 1275.322998,811.089478 1292.809937,810.903809 
	C1298.968262,810.838501 1305.114990,809.665466 1312.128174,808.973328 
z"/>
<path fill="#000000" opacity="1.000000" stroke="none" 
	d="
M683.755066,869.303345 
	C666.523376,861.198425 650.923340,851.371582 636.615906,839.267883 
	C613.931519,820.077271 596.908386,796.796570 585.056824,769.736084 
	C577.736633,753.022217 572.528870,735.614563 571.001282,717.287354 
	C570.320801,709.122559 569.118103,700.956299 569.108887,692.789612 
	C569.086609,673.009399 572.297607,653.610840 578.093567,634.725464 
	C584.979492,612.288757 595.224060,591.351318 609.271912,572.576660 
	C620.103943,558.099854 633.181152,545.614258 647.926086,535.011230 
	C669.873352,519.229065 694.334106,508.843475 720.418579,502.425964 
	C730.299988,499.994812 740.613281,499.191742 750.777100,498.079773 
	C757.647827,497.328125 764.616455,496.863464 771.515076,497.085938 
	C794.495483,497.826874 816.820618,502.102905 838.087463,511.040314 
	C858.806580,519.747559 877.404297,531.756897 894.295776,546.670349 
	C923.707397,572.638062 942.669617,604.777466 953.209656,642.354553 
	C957.032166,655.982483 959.358337,669.686157 958.942810,683.780151 
	C958.539856,697.447998 958.809082,711.284607 956.664307,724.708557 
	C954.682556,737.112488 950.922119,749.497437 946.077026,761.111511 
	C940.046143,775.567993 932.394348,789.387512 924.833313,803.147217 
	C921.819702,808.631348 917.577576,813.605652 913.204956,818.148010 
	C897.051880,834.927856 880.715393,851.397095 859.877747,862.788696 
	C840.648743,873.300781 820.337524,880.403503 799.047302,884.847412 
	C792.049561,886.307983 784.762451,886.646851 777.585693,886.918274 
	C768.597107,887.258118 759.555969,887.470459 750.590759,886.900208 
	C732.932312,885.776978 715.859131,881.561951 699.223450,875.618896 
	C694.098389,873.788025 689.103455,871.593079 683.755066,869.303345 
z"/>
<path fill="#000000" opacity="1.000000" stroke="none" 
	d="
M643.022095,187.861053 
	C646.096130,200.320892 646.676697,212.384903 645.147095,224.775177 
	C643.526245,237.904709 640.234619,250.372040 633.977112,261.988129 
	C619.967102,287.995514 599.450867,306.648315 571.585144,317.037415 
	C561.933899,320.635681 552.088806,322.347168 541.799866,323.214172 
	C526.785034,324.479462 512.308105,323.229279 497.854462,319.107147 
	C485.284393,315.522186 473.903046,309.644989 463.592621,301.926178 
	C443.005585,286.513855 428.795105,266.363312 422.027863,241.468140 
	C419.793182,233.247406 418.663818,224.593994 418.137512,216.069977 
	C417.186432,200.666870 418.233185,185.446945 423.910553,170.724747 
	C431.437561,151.206223 442.835327,134.772354 458.996368,121.306564 
	C473.381348,109.320633 489.827271,101.678848 507.811951,98.454918 
	C519.111816,96.429306 531.061218,97.959122 542.718689,98.013161 
	C558.873718,98.088051 573.202942,104.203659 587.147461,111.594643 
	C599.903625,118.355797 610.040588,128.044403 619.526001,138.815353 
	C631.265259,152.145554 637.785950,167.855606 642.761780,184.477783 
	C643.038330,185.401688 642.931335,186.440399 643.022095,187.861053 
z"/>
<path fill="#000000" opacity="1.000000" stroke="none" 
	d="
M402.998199,1139.089355 
	C402.665009,1131.716553 401.472900,1124.712402 402.179810,1117.905273 
	C403.680084,1103.458374 408.610504,1089.836548 417.448975,1078.329346 
	C431.940887,1059.461670 450.401428,1046.260376 474.686707,1043.021484 
	C488.249023,1041.212769 501.984161,1040.293335 515.155273,1044.737183 
	C541.567932,1053.648682 559.491943,1071.516846 570.232666,1097.311279 
	C575.784546,1110.644409 576.966003,1124.307129 575.785950,1138.150513 
	C574.741577,1150.402588 569.592896,1161.642090 563.282898,1172.219116 
	C554.484131,1186.967773 542.544250,1198.683350 527.460205,1206.651978 
	C517.070801,1212.140381 505.848145,1215.688599 493.753510,1216.092163 
	C479.360840,1216.572266 465.710785,1214.592773 452.531342,1208.312744 
	C436.503052,1200.675415 423.883606,1189.697021 414.765869,1174.438354 
	C408.291138,1163.603027 404.414703,1152.022949 402.998199,1139.089355 
z"/>
<path fill="#000000" opacity="1.000000" stroke="none" 
	d="
M1311.697510,808.985718 
	C1305.114990,809.665466 1298.968262,810.838501 1292.809937,810.903809 
	C1275.322998,811.089478 1260.103394,804.852173 1246.442627,794.050171 
	C1232.962891,783.391296 1224.044678,769.827454 1220.074463,753.279724 
	C1214.614258,730.522522 1218.322388,709.210083 1231.715210,689.774231 
	C1242.782471,673.713440 1258.110229,663.067627 1276.847778,659.399780 
	C1299.631348,654.940002 1321.287720,659.192566 1340.377808,673.756531 
	C1356.224243,685.845886 1366.121460,701.612305 1369.815308,720.894287 
	C1373.435425,739.789978 1368.860474,757.551636 1359.387573,774.095642 
	C1352.476929,786.164673 1342.397583,795.119507 1330.394531,801.730408 
	C1324.702637,804.865356 1318.241089,806.602783 1311.697510,808.985718 
z"/>
</svg>