<?xml version="1.0" standalone="no"?>
<svg version="1" xmlns="http://www.w3.org/2000/svg"
 width="3987pt" height="1420pt" viewBox="0 0 3987 1420"
 preserveAspectRatio="xMidYMid meet">

<g transform="translate(0,1420) scale(0.1,-0.1)"
fill="#0091ff" stroke="none">
<path d="M 9525 13035 c -170 -38 -297 -119 -390 -249 c -157 -220 -177 -465 -54 -666 c 92 -152 76 -263 -67 -446 c -96 -124 -136 -130 -267 -44 c -193 126 -672 292 -1081 375 c -336 68 -453 78 -911 81 c -506 2 -471 -8 -601 174 c -247 348 -563 558 -974 647 c -121 26 -449 26 -570 -1 c -342 -74 -665 -264 -872 -513 c -227 -272 -342 -570 -355 -918 c -6 -172 12 -316 63 -499 c 41 -147 43 -220 6 -291 c -11 -22 -71 -98 -132 -170 c -339 -393 -526 -692 -725 -1160 c -189 -445 -299 -863 -350 -1335 c -18 -168 -22 -300 -10 -320 c 14 -23 449 2 543 31 c 50 16 62 50 62 176 c 0 127 27 323 69 519 c 111 502 345 1004 689 1478 c 165 226 219 270 328 270 c 57 0 76 -7 230 -82 c 186 -90 325 -139 484 -173 c 151 -33 439 -33 587 -1 c 640 138 1096 660 1183 1352 c 15 120 38 172 88 196 c 85 40 498 37 797 -7 c 315 -45 678 -145 1031 -282 c 200 -77 244 -114 244 -200 c 0 -68 -19 -107 -177 -362 c -156 -254 -464 -769 -594 -994 c -104 -182 -141 -227 -194 -237 c -39 -7 -54 -4 -229 50 c -65 20 -179 48 -255 63 c -122 24 -160 26 -371 27 c -189 1 -256 -3 -340 -18 c -308 -55 -596 -177 -835 -353 c -119 -88 -324 -295 -404 -408 c -191 -272 -307 -546 -366 -874 c -14 -75 -32 -155 -41 -178 c -20 -55 -71 -99 -137 -117 c -28 -8 -187 -27 -352 -41 c -428 -37 -1163 -107 -1791 -170 c -589 -59 -605 -59 -707 -12 c -29 13 -89 58 -135 99 c -129 118 -225 157 -380 158 c -247 0 -476 -186 -528 -429 c -26 -124 -9 -245 50 -366 c 187 -377 694 -401 936 -44 c 82 119 144 149 330 156 c 208 8 233 -10 249 -177 c 12 -126 73 -375 142 -589 c 162 -497 401 -950 722 -1373 c 162 -213 172 -247 130 -441 c -25 -117 -28 -151 -28 -307 c 1 -156 4 -187 28 -283 c 127 -509 511 -874 1032 -983 c 100 -20 331 -23 435 -5 c 193 34 398 123 570 247 c 147 106 170 117 265 122 c 65 3 116 -4 280 -37 c 357 -73 490 -85 890 -85 c 307 -1 370 2 515 22 c 296 40 569 100 805 176 c 61 19 141 40 179 46 c 145 23 171 68 125 216 c -53 171 -115 279 -186 321 c -67 39 -126 35 -308 -20 c -540 -162 -1116 -208 -1670 -131 c -237 32 -336 60 -358 98 c -9 15 -12 94 -12 276 c -1 269 -6 314 -57 470 c -99 307 -348 579 -681 746 c -199 101 -375 139 -592 131 c -218 -9 -382 -58 -608 -184 c -213 -119 -244 -108 -411 144 c -277 420 -465 845 -581 1314 c -43 174 -52 244 -36 292 c 23 68 66 82 326 102 c 342 26 749 65 1020 96 c 342 40 402 44 451 30 c 96 -26 143 -85 208 -262 c 112 -304 255 -535 466 -753 c 335 -346 745 -538 1231 -576 c 220 -17 500 12 709 75 c 118 36 217 43 275 20 c 70 -26 110 -86 272 -409 c 300 -598 666 -1300 893 -1711 c 214 -388 250 -474 250 -596 c 0 -77 -30 -167 -90 -272 c -80 -139 -104 -220 -104 -352 c -1 -215 79 -392 254 -566 c 256 -255 652 -303 968 -118 c 31 19 100 77 152 129 c 78 77 104 112 142 186 c 72 140 93 223 93 379 c 0 149 -20 235 -81 358 c -93 186 -225 314 -394 383 c -53 22 -90 28 -206 35 c -77 5 -162 15 -189 23 c -69 21 -148 79 -198 146 c -62 82 -154 248 -167 302 c -11 42 -10 52 9 90 c 22 45 40 61 221 188 c 439 308 825 699 1109 1120 c 164 243 312 520 411 766 c 60 148 92 192 171 231 c 35 18 98 40 139 48 c 545 110 931 538 979 1087 c 22 259 -33 506 -162 723 c -72 122 -221 277 -346 360 c -89 59 -129 80 -312 163 c -81 37 -143 90 -174 153 c -13 25 -45 121 -70 212 c -255 929 -710 1650 -1444 2290 c -168 147 -173 148 -267 53 c -52 -54 -76 -91 -138 -216 c -42 -83 -76 -160 -76 -170 c 0 -39 25 -71 108 -136 c 116 -93 336 -314 462 -465 c 331 -397 584 -867 745 -1384 c 87 -279 81 -302 -117 -421 c -318 -191 -519 -452 -605 -783 c -31 -120 -41 -310 -24 -431 c 46 -315 214 -598 478 -808 c 93 -73 133 -129 133 -185 c 0 -98 -187 -460 -389 -752 c -231 -336 -568 -686 -905 -939 c -125 -94 -181 -126 -225 -126 c -62 0 -88 38 -289 433 c -177 348 -327 634 -512 977 c -93 172 -105 210 -89 276 c 11 41 31 67 150 190 c 209 218 310 361 425 599 c 255 532 251 1136 -10 1671 c -102 208 -216 370 -394 557 c -77 82 -122 160 -122 214 c 0 18 7 54 16 80 c 9 26 154 278 322 558 c 304 508 724 1220 945 1600 c 64 110 132 219 152 242 c 52 61 120 90 240 104 c 185 20 299 72 415 188 c 124 125 180 265 180 451 c 0 109 -18 193 -58 282 c -124 270 -439 427 -727 363 z m -4400 -744 c 93 -25 220 -83 302 -139 c 65 -45 184 -164 230 -232 c 164 -242 207 -556 114 -821 c -58 -164 -186 -335 -325 -434 c -82 -58 -212 -120 -311 -147 c -116 -31 -355 -31 -470 0 c -328 90 -567 332 -657 663 c -32 118 -32 345 1 464 c 66 246 224 450 442 569 c 72 39 191 81 271 95 c 89 16 312 6 403 -18 z m 1783 -3181 c 272 -24 500 -105 727 -258 c 346 -233 576 -577 667 -995 c 32 -148 32 -445 -1 -597 c -46 -214 -129 -415 -248 -595 c -90 -136 -282 -328 -418 -418 c -472 -312 -1037 -349 -1551 -103 c -878 420 -1155 1488 -603 2317 c 77 115 231 271 352 356 c 231 163 524 269 807 292 c 138 12 144 12 268 1 z m 4299 -1318 c 104 -38 176 -86 252 -167 c 201 -216 213 -547 27 -792 c -94 -124 -246 -210 -412 -232 c -297 -41 -582 147 -670 444 c -27 92 -25 249 4 345 c 67 216 228 371 441 425 c 37 10 94 13 166 11 c 93 -3 123 -8 192 -34 z m -6472 -3047 c 394 -100 631 -547 484 -914 c -136 -340 -459 -530 -792 -467 c -337 65 -570 353 -568 705 c 0 127 16 195 73 311 c 80 165 261 310 450 360 c 92 24 268 26 353 5 z"/>
<path d="M 14270 7440 l 0 -3820 l 1815 0 l 1815 0 l 0 265 l 0 265 l -1575 0 l -1575 0 l 0 3555 l 0 3555 l -240 0 l -240 0 l 0 -3820 z"/>
<path d="M 19713 8588 c 3 -2465 4 -2661 20 -2768 c 95 -623 329 -1123 712 -1519 c 380 -393 847 -612 1386 -652 c 642 -48 1249 188 1701 659 c 459 479 728 1177 728 1887 c 0 753 -351 1544 -896 2016 c -322 280 -651 451 -995 518 c -95 19 -285 41 -351 41 l -28 0 l 0 -265 l 0 -265 l 68 0 c 79 0 206 -15 312 -36 c 341 -69 691 -285 938 -579 c 317 -377 492 -881 492 -1416 c 0 -339 -59 -630 -190 -936 c -104 -242 -220 -413 -410 -604 c -102 -103 -163 -154 -250 -212 c -200 -132 -394 -213 -622 -259 c -99 -20 -142 -23 -338 -22 c -193 0 -239 4 -323 22 c -144 32 -266 75 -402 141 c -555 272 -940 807 -1066 1481 l -24 125 l -3 2648 l -2 2647 l -230 0 l -230 0 l 3 -2652 z"/>
<path d="M 35330 8729 c -750 -86 -1406 -563 -1769 -1287 c -141 -281 -225 -555 -273 -887 c -20 -138 -17 -601 4 -742 c 105 -692 430 -1282 923 -1678 c 246 -198 567 -357 855 -424 c 277 -64 609 -70 880 -15 c 632 128 1188 552 1532 1169 c 327 586 423 1330 259 2000 c -70 282 -202 590 -351 820 c -392 600 -988 978 -1649 1045 c -119 12 -302 11 -411 -1 z m 560 -492 c 146 -35 217 -60 348 -122 c 203 -97 356 -209 522 -381 c 154 -160 260 -311 360 -512 c 359 -726 305 -1628 -138 -2288 c -386 -574 -990 -873 -1619 -803 c -371 41 -723 217 -1009 503 c -324 326 -526 740 -601 1236 c -21 141 -23 480 -4 620 c 117 861 665 1545 1385 1731 c 163 42 222 48 441 45 c 181 -4 224 -7 315 -29 z"/>
<path d="M 18580 6160 l 0 -2540 l 220 0 l 220 0 l 0 2540 l 0 2540 l -220 0 l -220 0 l 0 -2540 z"/>
<path d="M 32157 8689 c -411 -29 -742 -138 -1053 -348 c -223 -149 -384 -311 -533 -531 c -228 -340 -353 -717 -422 -1270 c -9 -67 -13 -504 -16 -1502 l -4 -1408 l 225 0 l 226 0 l 0 1313 c 0 811 4 1358 10 1432 c 15 175 56 423 90 552 c 56 209 172 458 283 609 c 193 261 469 467 753 562 c 160 54 407 92 590 92 l 84 0 l 0 255 l 0 255 l -62 -1 c -35 -1 -111 -5 -171 -10 z"/>
<path d="M 27045 8674 c -535 -45 -974 -251 -1352 -635 c -190 -193 -329 -391 -453 -644 c -132 -271 -215 -534 -261 -836 c -29 -186 -32 -607 -7 -784 c 88 -606 352 -1136 764 -1535 c 391 -379 833 -579 1357 -615 l 97 -7 l 0 256 l 0 256 l -59 0 c -200 0 -502 103 -724 247 c -337 217 -613 533 -797 908 c -113 230 -174 433 -201 665 c -15 129 -7 399 16 525 c 148 832 743 1514 1453 1666 c 128 27 384 36 530 19 c 370 -43 708 -209 987 -485 c 306 -302 492 -673 582 -1155 c 16 -87 18 -209 20 -1497 l 4 -1403 l 225 0 l 225 0 l -4 1403 c -3 1557 1 1450 -72 1753 c -232 960 -990 1726 -1854 1873 c -119 20 -371 33 -476 25 z"/>
</g>
</svg>
