<?xml version="1.0" standalone="no"?>
<svg version="1.0" xmlns="http://www.w3.org/2000/svg"
 width="3987.000000pt" height="1420.000000pt" viewBox="0 0 3987.000000 1420.000000"
 preserveAspectRatio="xMidYMid meet">

<g transform="translate(0.000000,1420.000000) scale(0.100000,-0.100000)"
fill="#0091ff" stroke="none">
<path d="M9525 13035 c-170 -38 -297 -119 -390 -249 -157 -220 -177 -465 -54
-666 92 -152 76 -263 -67 -446 -96 -124 -136 -130 -267 -44 -193 126 -672 292
-1081 375 -336 68 -453 78 -911 81 -506 2 -471 -8 -601 174 -247 348 -563 558
-974 647 -121 26 -449 26 -570 -1 -342 -74 -665 -264 -872 -513 -227 -272
-342 -570 -355 -918 -6 -172 12 -316 63 -499 41 -147 43 -220 6 -291 -11 -22
-71 -98 -132 -170 -339 -393 -526 -692 -725 -1160 -189 -445 -299 -863 -350
-1335 -18 -168 -22 -300 -10 -320 14 -23 449 2 543 31 50 16 62 50 62 176 0
127 27 323 69 519 111 502 345 1004 689 1478 165 226 219 270 328 270 57 0 76
-7 230 -82 186 -90 325 -139 484 -173 151 -33 439 -33 587 -1 640 138 1096
660 1183 1352 15 120 38 172 88 196 85 40 498 37 797 -7 315 -45 678 -145
1031 -282 200 -77 244 -114 244 -200 0 -68 -19 -107 -177 -362 -156 -254 -464
-769 -594 -994 -104 -182 -141 -227 -194 -237 -39 -7 -54 -4 -229 50 -65 20
-179 48 -255 63 -122 24 -160 26 -371 27 -189 1 -256 -3 -340 -18 -308 -55
-596 -177 -835 -353 -119 -88 -324 -295 -404 -408 -191 -272 -307 -546 -366
-874 -14 -75 -32 -155 -41 -178 -20 -55 -71 -99 -137 -117 -28 -8 -187 -27
-352 -41 -428 -37 -1163 -107 -1791 -170 -589 -59 -605 -59 -707 -12 -29 13
-89 58 -135 99 -129 118 -225 157 -380 158 -247 0 -476 -186 -528 -429 -26
-124 -9 -245 50 -366 187 -377 694 -401 936 -44 82 119 144 149 330 156 208 8
233 -10 249 -177 12 -126 73 -375 142 -589 162 -497 401 -950 722 -1373 162
-213 172 -247 130 -441 -25 -117 -28 -151 -28 -307 1 -156 4 -187 28 -283 127
-509 511 -874 1032 -983 100 -20 331 -23 435 -5 193 34 398 123 570 247 147
106 170 117 265 122 65 3 116 -4 280 -37 357 -73 490 -85 890 -85 307 -1 370
2 515 22 296 40 569 100 805 176 61 19 141 40 179 46 145 23 171 68 125 216
-53 171 -115 279 -186 321 -67 39 -126 35 -308 -20 -540 -162 -1116 -208
-1670 -131 -237 32 -336 60 -358 98 -9 15 -12 94 -12 276 -1 269 -6 314 -57
470 -99 307 -348 579 -681 746 -199 101 -375 139 -592 131 -218 -9 -382 -58
-608 -184 -213 -119 -244 -108 -411 144 -277 420 -465 845 -581 1314 -43 174
-52 244 -36 292 23 68 66 82 326 102 342 26 749 65 1020 96 342 40 402 44 451
30 96 -26 143 -85 208 -262 112 -304 255 -535 466 -753 335 -346 745 -538
1231 -576 220 -17 500 12 709 75 118 36 217 43 275 20 70 -26 110 -86 272
-409 300 -598 666 -1300 893 -1711 214 -388 250 -474 250 -596 0 -77 -30 -167
-90 -272 -80 -139 -104 -220 -104 -352 -1 -215 79 -392 254 -566 256 -255 652
-303 968 -118 31 19 100 77 152 129 78 77 104 112 142 186 72 140 93 223 93
379 0 149 -20 235 -81 358 -93 186 -225 314 -394 383 -53 22 -90 28 -206 35
-77 5 -162 15 -189 23 -69 21 -148 79 -198 146 -62 82 -154 248 -167 302 -11
42 -10 52 9 90 22 45 40 61 221 188 439 308 825 699 1109 1120 164 243 312
520 411 766 60 148 92 192 171 231 35 18 98 40 139 48 545 110 931 538 979
1087 22 259 -33 506 -162 723 -72 122 -221 277 -346 360 -89 59 -129 80 -312
163 -81 37 -143 90 -174 153 -13 25 -45 121 -70 212 -255 929 -710 1650 -1444
2290 -168 147 -173 148 -267 53 -52 -54 -76 -91 -138 -216 -42 -83 -76 -160
-76 -170 0 -39 25 -71 108 -136 116 -93 336 -314 462 -465 331 -397 584 -867
745 -1384 87 -279 81 -302 -117 -421 -318 -191 -519 -452 -605 -783 -31 -120
-41 -310 -24 -431 46 -315 214 -598 478 -808 93 -73 133 -129 133 -185 0 -98
-187 -460 -389 -752 -231 -336 -568 -686 -905 -939 -125 -94 -181 -126 -225
-126 -62 0 -88 38 -289 433 -177 348 -327 634 -512 977 -93 172 -105 210 -89
276 11 41 31 67 150 190 209 218 310 361 425 599 255 532 251 1136 -10 1671
-102 208 -216 370 -394 557 -77 82 -122 160 -122 214 0 18 7 54 16 80 9 26
154 278 322 558 304 508 724 1220 945 1600 64 110 132 219 152 242 52 61 120
90 240 104 185 20 299 72 415 188 124 125 180 265 180 451 0 109 -18 193 -58
282 -124 270 -439 427 -727 363z m-4400 -744 c93 -25 220 -83 302 -139 65 -45
184 -164 230 -232 164 -242 207 -556 114 -821 -58 -164 -186 -335 -325 -434
-82 -58 -212 -120 -311 -147 -116 -31 -355 -31 -470 0 -328 90 -567 332 -657
663 -32 118 -32 345 1 464 66 246 224 450 442 569 72 39 191 81 271 95 89 16
312 6 403 -18z m1783 -3181 c272 -24 500 -105 727 -258 346 -233 576 -577 667
-995 32 -148 32 -445 -1 -597 -46 -214 -129 -415 -248 -595 -90 -136 -282
-328 -418 -418 -472 -312 -1037 -349 -1551 -103 -878 420 -1155 1488 -603
2317 77 115 231 271 352 356 231 163 524 269 807 292 138 12 144 12 268 1z
m4299 -1318 c104 -38 176 -86 252 -167 201 -216 213 -547 27 -792 -94 -124
-246 -210 -412 -232 -297 -41 -582 147 -670 444 -27 92 -25 249 4 345 67 216
228 371 441 425 37 10 94 13 166 11 93 -3 123 -8 192 -34z m-6472 -3047 c394
-100 631 -547 484 -914 -136 -340 -459 -530 -792 -467 -337 65 -570 353 -568
705 0 127 16 195 73 311 80 165 261 310 450 360 92 24 268 26 353 5z"/>
<path d="M14270 7440 l0 -3820 1815 0 1815 0 0 265 0 265 -1575 0 -1575 0 0
3555 0 3555 -240 0 -240 0 0 -3820z"/>
<path d="M19713 8588 c3 -2465 4 -2661 20 -2768 95 -623 329 -1123 712 -1519
380 -393 847 -612 1386 -652 642 -48 1249 188 1701 659 459 479 728 1177 728
1887 0 753 -351 1544 -896 2016 -322 280 -651 451 -995 518 -95 19 -285 41
-351 41 l-28 0 0 -265 0 -265 68 0 c79 0 206 -15 312 -36 341 -69 691 -285
938 -579 317 -377 492 -881 492 -1416 0 -339 -59 -630 -190 -936 -104 -242
-220 -413 -410 -604 -102 -103 -163 -154 -250 -212 -200 -132 -394 -213 -622
-259 -99 -20 -142 -23 -338 -22 -193 0 -239 4 -323 22 -144 32 -266 75 -402
141 -555 272 -940 807 -1066 1481 l-24 125 -3 2648 -2 2647 -230 0 -230 0 3
-2652z"/>
<path d="M35330 8729 c-750 -86 -1406 -563 -1769 -1287 -141 -281 -225 -555
-273 -887 -20 -138 -17 -601 4 -742 105 -692 430 -1282 923 -1678 246 -198
567 -357 855 -424 277 -64 609 -70 880 -15 632 128 1188 552 1532 1169 327
586 423 1330 259 2000 -70 282 -202 590 -351 820 -392 600 -988 978 -1649
1045 -119 12 -302 11 -411 -1z m560 -492 c146 -35 217 -60 348 -122 203 -97
356 -209 522 -381 154 -160 260 -311 360 -512 359 -726 305 -1628 -138 -2288
-386 -574 -990 -873 -1619 -803 -371 41 -723 217 -1009 503 -324 326 -526 740
-601 1236 -21 141 -23 480 -4 620 117 861 665 1545 1385 1731 163 42 222 48
441 45 181 -4 224 -7 315 -29z"/>
<path d="M18580 6160 l0 -2540 220 0 220 0 0 2540 0 2540 -220 0 -220 0 0
-2540z"/>
<path d="M32157 8689 c-411 -29 -742 -138 -1053 -348 -223 -149 -384 -311
-533 -531 -228 -340 -353 -717 -422 -1270 -9 -67 -13 -504 -16 -1502 l-4
-1408 225 0 226 0 0 1313 c0 811 4 1358 10 1432 15 175 56 423 90 552 56 209
172 458 283 609 193 261 469 467 753 562 160 54 407 92 590 92 l84 0 0 255 0
255 -62 -1 c-35 -1 -111 -5 -171 -10z"/>
<path d="M27045 8674 c-535 -45 -974 -251 -1352 -635 -190 -193 -329 -391
-453 -644 -132 -271 -215 -534 -261 -836 -29 -186 -32 -607 -7 -784 88 -606
352 -1136 764 -1535 391 -379 833 -579 1357 -615 l97 -7 0 256 0 256 -59 0
c-200 0 -502 103 -724 247 -337 217 -613 533 -797 908 -113 230 -174 433 -201
665 -15 129 -7 399 16 525 148 832 743 1514 1453 1666 128 27 384 36 530 19
370 -43 708 -209 987 -485 306 -302 492 -673 582 -1155 16 -87 18 -209 20
-1497 l4 -1403 225 0 225 0 -4 1403 c-3 1557 1 1450 -72 1753 -232 960 -990
1726 -1854 1873 -119 20 -371 33 -476 25z"/>
<path d="M14280 1980 l0 -512 253 4 c219 4 260 8 314 25 210 69 304 222 306
498 1 176 -36 287 -122 368 -109 102 -175 118 -498 124 l-253 5 0 -512z m517
385 c72 -21 142 -72 175 -125 40 -65 61 -175 54 -280 -11 -162 -63 -272 -156
-328 -81 -48 -118 -55 -295 -56 l-160 -1 -3 395 c-1 217 0 401 3 409 8 19 307
9 382 -14z"/>
<path d="M15677 2478 c-3 -7 -96 -227 -207 -488 -111 -261 -206 -485 -211
-497 -8 -22 -7 -23 59 -23 l67 1 179 439 c99 242 182 440 185 440 3 0 47 -100
97 -223 l92 -222 -128 -3 -127 -3 -12 -40 c-7 -23 -15 -47 -18 -55 -4 -12 23
-14 164 -14 l169 0 65 -160 64 -160 72 0 c66 0 72 2 65 18 -4 10 -101 240
-217 510 l-210 492 -71 0 c-48 0 -74 -4 -77 -12z"/>
<path d="M16210 2440 l0 -49 158 -3 157 -3 3 -457 2 -458 65 0 65 0 0 460 0
460 160 0 160 0 0 50 0 50 -385 0 -385 0 0 -50z"/>
<path d="M17357 2478 c-3 -7 -96 -227 -207 -488 -111 -261 -206 -485 -211
-497 -8 -22 -7 -23 59 -23 l67 1 179 439 c99 242 182 440 185 440 3 0 47 -100
97 -223 l92 -222 -128 -3 -127 -3 -12 -40 c-7 -23 -15 -47 -18 -55 -4 -12 23
-14 164 -14 l169 0 65 -160 64 -160 72 0 c66 0 72 2 65 18 -4 10 -101 240
-217 510 l-210 492 -71 0 c-48 0 -74 -4 -77 -12z"/>
<path d="M18570 1980 l0 -512 253 4 c219 4 260 8 314 25 210 69 304 222 306
498 1 176 -36 287 -122 368 -109 102 -175 118 -498 124 l-253 5 0 -512z m517
385 c72 -21 142 -72 175 -125 40 -65 61 -175 54 -280 -11 -162 -63 -272 -156
-328 -81 -48 -118 -55 -295 -56 l-160 -1 -3 395 c-1 217 0 401 3 409 8 19 307
9 382 -14z"/>
<path d="M19640 1980 l0 -510 65 0 65 0 0 455 0 455 178 0 c153 0 182 -3 212
-18 96 -51 90 -199 -11 -271 -34 -25 -104 -52 -196 -77 -8 -2 -13 -21 -13 -47
0 -40 12 -61 158 -268 l159 -224 88 -3 c71 -2 86 0 78 10 -6 7 -85 116 -177
241 l-166 228 31 11 c99 34 181 95 220 162 25 44 29 62 29 125 0 97 -25 152
-87 191 -64 41 -140 50 -401 50 l-232 0 0 -510z"/>
<path d="M20600 1980 l0 -510 60 0 60 0 0 510 0 510 -60 0 -60 0 0 -510z"/>
<path d="M20895 2453 c9 -21 107 -251 218 -510 l201 -473 72 0 72 0 20 48 c23
55 378 891 399 940 l13 32 -67 0 -68 0 -180 -439 c-99 -241 -183 -437 -186
-435 -3 1 -88 199 -189 438 l-184 436 -68 0 -68 0 15 -37z"/>
<path d="M22030 1980 l0 -510 340 0 340 0 0 50 0 50 -272 2 -273 3 0 180 0
180 253 3 252 2 0 50 0 50 -255 0 -255 0 2 173 3 172 268 3 267 2 0 50 0 50
-335 0 -335 0 0 -510z"/>
<path d="M22910 1980 l0 -510 60 0 60 0 0 411 c0 248 4 409 9 407 5 -1 147
-186 316 -410 l306 -408 64 0 65 0 0 510 0 510 -60 0 -60 0 -2 -411 -3 -411
-310 409 -310 408 -68 3 -67 3 0 -511z"/>
<path d="M24303 2463 c2 -16 40 -245 83 -510 l79 -483 87 0 87 0 131 403 c72
221 135 413 139 427 11 32 -4 70 161 -419 l138 -406 88 -3 89 -3 96 508 95
508 -54 3 c-30 2 -56 1 -59 -2 -3 -3 -41 -199 -84 -437 -44 -238 -81 -435 -83
-437 -4 -4 -27 59 -187 520 l-124 358 -65 0 -65 0 -139 -433 c-127 -393 -156
-475 -156 -439 0 13 -128 814 -135 850 -5 20 -11 22 -66 22 l-61 0 5 -27z"/>
<path d="M25730 1980 l0 -510 340 0 340 0 0 50 0 50 -272 2 -273 3 0 180 0
180 253 3 252 2 0 50 0 50 -255 0 -255 0 2 173 3 172 268 3 267 2 0 50 0 50
-335 0 -335 0 0 -510z"/>
<path d="M26610 1980 l0 -512 263 4 c282 5 313 10 383 63 68 52 107 189 85
298 -16 72 -58 121 -134 151 l-57 23 39 18 c49 22 105 79 126 127 8 21 15 67
15 106 0 112 -48 181 -149 213 -22 8 -139 14 -303 16 l-268 5 0 -512z m517
386 c60 -31 87 -107 64 -179 -23 -69 -123 -132 -238 -152 -42 -7 -43 -8 -43
-45 l0 -38 68 -7 c95 -9 157 -31 186 -66 74 -87 52 -227 -44 -283 -32 -19 -52
-21 -205 -21 l-170 0 -3 395 c-1 217 0 401 3 409 8 21 338 11 382 -13z"/>
<path d="M27887 2478 c-3 -7 -96 -227 -207 -488 -111 -261 -206 -485 -211
-497 -8 -22 -7 -23 59 -23 l67 1 179 439 c99 242 182 440 185 440 3 0 47 -100
97 -223 l92 -222 -128 -3 -127 -3 -12 -40 c-7 -23 -15 -47 -18 -55 -4 -12 23
-14 164 -14 l169 0 65 -160 64 -160 72 0 c66 0 72 2 65 18 -4 10 -101 240
-217 510 l-210 492 -71 0 c-48 0 -74 -4 -77 -12z"/>
<path d="M28600 1980 l0 -510 65 0 65 0 0 455 0 455 167 0 c146 0 172 -2 208
-20 93 -45 112 -179 39 -277 -29 -38 -146 -99 -210 -109 -25 -3 -48 -12 -50
-19 -3 -7 0 -32 6 -55 l11 -42 47 7 c129 18 268 92 320 167 41 61 52 100 52
190 0 88 -16 137 -58 181 -68 72 -144 87 -439 87 l-223 0 0 -510z"/>
<path d="M29500 1980 l0 -510 65 0 65 0 0 455 0 455 167 0 c146 0 172 -2 208
-20 93 -45 112 -179 39 -277 -29 -38 -146 -99 -210 -109 -25 -3 -48 -12 -50
-19 -3 -7 0 -32 6 -55 l11 -42 47 7 c129 18 268 92 320 167 41 61 52 100 52
190 0 88 -16 137 -58 181 -68 72 -144 87 -439 87 l-223 0 0 -510z"/>
<path d="M30400 1980 l0 -510 330 0 330 0 0 50 0 50 -262 2 -263 3 -3 458 -2
457 -65 0 -65 0 0 -510z"/>
<path d="M31250 1980 l0 -510 60 0 60 0 0 510 0 510 -60 0 -60 0 0 -510z"/>
<path d="M31923 2471 c-96 -26 -147 -54 -203 -111 -89 -89 -123 -190 -123
-370 0 -287 113 -450 350 -506 83 -19 342 -15 413 8 l45 14 3 56 3 56 -63 -21
c-52 -17 -87 -21 -203 -21 -124 0 -147 2 -199 23 -98 39 -164 111 -202 221
-25 75 -26 251 -1 332 32 104 107 179 217 215 82 27 301 24 388 -4 l63 -21 -3
56 -3 57 -50 14 c-28 7 -119 15 -205 17 -131 3 -166 1 -227 -15z"/>
<path d="M32947 2478 c-3 -7 -96 -227 -207 -488 -111 -261 -206 -485 -211
-497 -8 -22 -7 -23 59 -23 l67 1 179 439 c99 242 182 440 185 440 3 0 47 -100
97 -223 l92 -222 -128 -3 -127 -3 -12 -40 c-7 -23 -15 -47 -18 -55 -4 -12 23
-14 164 -14 l169 0 65 -160 64 -160 72 0 c66 0 72 2 65 18 -4 10 -101 240
-217 510 l-210 492 -71 0 c-48 0 -74 -4 -77 -12z"/>
<path d="M33480 2440 l0 -49 158 -3 157 -3 3 -457 2 -458 65 0 65 0 0 460 0
460 160 0 160 0 0 50 0 50 -385 0 -385 0 0 -50z"/>
<path d="M34440 1980 l0 -510 60 0 60 0 0 510 0 510 -60 0 -60 0 0 -510z"/>
<path d="M35118 2474 c-123 -29 -223 -105 -272 -207 -76 -155 -74 -434 4 -587
48 -94 164 -175 289 -201 89 -18 314 -7 382 20 201 78 293 254 276 531 -10
154 -46 251 -126 333 -88 92 -195 127 -381 126 -63 0 -141 -7 -172 -15z m366
-123 c74 -36 114 -82 150 -169 25 -61 34 -260 16 -341 -26 -118 -84 -195 -180
-240 -50 -23 -67 -26 -175 -26 -116 0 -123 1 -188 33 -127 63 -182 178 -182
377 1 181 48 289 154 352 72 43 116 52 237 50 91 -2 106 -5 168 -36z"/>
<path d="M36010 1980 l0 -510 60 0 60 0 0 411 c0 248 4 409 9 407 5 -1 147
-186 316 -410 l306 -408 64 0 65 0 0 510 0 510 -60 0 -60 0 -2 -411 -3 -411
-310 409 -310 408 -68 3 -67 3 0 -511z"/>
<path d="M37345 2484 c-135 -34 -199 -75 -232 -146 -43 -92 -37 -213 15 -298
20 -33 43 -53 85 -74 56 -28 65 -30 231 -36 145 -5 178 -9 206 -26 49 -28 70
-63 76 -125 9 -93 -48 -172 -145 -199 -84 -23 -299 -6 -439 36 -22 6 -23 5
-20 -52 l3 -59 55 -13 c74 -19 419 -22 477 -4 74 22 135 71 167 135 26 51 30
69 29 140 -1 134 -46 208 -152 248 -46 18 -87 23 -221 28 -148 5 -169 8 -202
29 -47 29 -73 92 -65 158 9 80 66 134 165 155 79 16 268 6 359 -20 40 -12 75
-21 78 -21 3 0 5 26 3 57 l-3 58 -55 13 c-55 13 -376 26 -415 16z"/>
<path d="M18020 1845 l0 -55 180 0 180 0 0 55 0 55 -180 0 -180 0 0 -55z"/>
</g>
</svg>
